<mxfile host="app.diagrams.net" modified="2024-03-28T05:38:06.510Z" agent="Mozilla/5.0 (Windows NT 10.0; Win64; x64) AppleWebKit/537.36 (KHTML, like Gecko) Chrome/123.0.0.0 Safari/537.36" etag="DwDkQtpG99O2jy3KngRu" version="24.2.0" type="google">
  <diagram id="C5RBs43oDa-KdzZeNtuy" name="Page-1">
    <mxGraphModel dx="1591" dy="2089" grid="1" gridSize="10" guides="1" tooltips="1" connect="1" arrows="1" fold="1" page="1" pageScale="1" pageWidth="827" pageHeight="1169" math="0" shadow="0">
      <root>
        <mxCell id="WIyWlLk6GJQsqaUBKTNV-0" />
        <mxCell id="WIyWlLk6GJQsqaUBKTNV-1" parent="WIyWlLk6GJQsqaUBKTNV-0" />
        <mxCell id="zkfFHV4jXpPFQw0GAbJ--17" value="CyclingPortallmpl" style="swimlane;fontStyle=0;align=center;verticalAlign=top;childLayout=stackLayout;horizontal=1;startSize=26;horizontalStack=0;resizeParent=1;resizeLast=0;collapsible=1;marginBottom=0;rounded=0;shadow=0;strokeWidth=1;" parent="WIyWlLk6GJQsqaUBKTNV-1" vertex="1">
          <mxGeometry x="430" y="378" width="440" height="1272" as="geometry">
            <mxRectangle x="550" y="140" width="160" height="26" as="alternateBounds" />
          </mxGeometry>
        </mxCell>
        <mxCell id="Yn97bhyg1CkWvzF4sl9t-0" value="TeamsArray: Team[]" style="text;align=left;verticalAlign=top;spacingLeft=4;spacingRight=4;overflow=hidden;rotatable=0;points=[[0,0.5],[1,0.5]];portConstraint=eastwest;" parent="zkfFHV4jXpPFQw0GAbJ--17" vertex="1">
          <mxGeometry y="26" width="440" height="34" as="geometry" />
        </mxCell>
        <mxCell id="Yn97bhyg1CkWvzF4sl9t-1" value="RidersArray: Rider[]" style="text;align=left;verticalAlign=top;spacingLeft=4;spacingRight=4;overflow=hidden;rotatable=0;points=[[0,0.5],[1,0.5]];portConstraint=eastwest;" parent="zkfFHV4jXpPFQw0GAbJ--17" vertex="1">
          <mxGeometry y="60" width="440" height="30" as="geometry" />
        </mxCell>
        <mxCell id="n8QAIy7GEXvHhuEZce3j-1" value="RidersArray: Rider[]" style="text;align=left;verticalAlign=top;spacingLeft=4;spacingRight=4;overflow=hidden;rotatable=0;points=[[0,0.5],[1,0.5]];portConstraint=eastwest;" vertex="1" parent="zkfFHV4jXpPFQw0GAbJ--17">
          <mxGeometry y="90" width="440" height="30" as="geometry" />
        </mxCell>
        <mxCell id="bQhxpnf4zEDF_hCfJMsT-57" value="StagesArray: Stages[]" style="text;align=left;verticalAlign=top;spacingLeft=4;spacingRight=4;overflow=hidden;rotatable=0;points=[[0,0.5],[1,0.5]];portConstraint=eastwest;" parent="zkfFHV4jXpPFQw0GAbJ--17" vertex="1">
          <mxGeometry y="120" width="440" height="30" as="geometry" />
        </mxCell>
        <mxCell id="n8QAIy7GEXvHhuEZce3j-3" value="nextStageId: List&lt;Integer&gt;" style="text;align=left;verticalAlign=top;spacingLeft=4;spacingRight=4;overflow=hidden;rotatable=0;points=[[0,0.5],[1,0.5]];portConstraint=eastwest;" vertex="1" parent="zkfFHV4jXpPFQw0GAbJ--17">
          <mxGeometry y="150" width="440" height="30" as="geometry" />
        </mxCell>
        <mxCell id="n8QAIy7GEXvHhuEZce3j-4" value="racesList: List&lt;Races&gt;" style="text;align=left;verticalAlign=top;spacingLeft=4;spacingRight=4;overflow=hidden;rotatable=0;points=[[0,0.5],[1,0.5]];portConstraint=eastwest;" vertex="1" parent="zkfFHV4jXpPFQw0GAbJ--17">
          <mxGeometry y="180" width="440" height="30" as="geometry" />
        </mxCell>
        <mxCell id="n8QAIy7GEXvHhuEZce3j-5" value="nextRaceId: List&lt;Integer&gt;" style="text;align=left;verticalAlign=top;spacingLeft=4;spacingRight=4;overflow=hidden;rotatable=0;points=[[0,0.5],[1,0.5]];portConstraint=eastwest;" vertex="1" parent="zkfFHV4jXpPFQw0GAbJ--17">
          <mxGeometry y="210" width="440" height="40" as="geometry" />
        </mxCell>
        <mxCell id="Yn97bhyg1CkWvzF4sl9t-2" value="generateTeamId(): int" style="text;align=left;verticalAlign=top;spacingLeft=4;spacingRight=4;overflow=hidden;rotatable=0;points=[[0,0.5],[1,0.5]];portConstraint=eastwest;rounded=0;shadow=0;html=0;" parent="zkfFHV4jXpPFQw0GAbJ--17" vertex="1">
          <mxGeometry y="250" width="440" height="26" as="geometry" />
        </mxCell>
        <mxCell id="zkfFHV4jXpPFQw0GAbJ--18" value="getRaceIds(): int[]" style="text;align=left;verticalAlign=top;spacingLeft=4;spacingRight=4;overflow=hidden;rotatable=0;points=[[0,0.5],[1,0.5]];portConstraint=eastwest;" parent="zkfFHV4jXpPFQw0GAbJ--17" vertex="1">
          <mxGeometry y="276" width="440" height="26" as="geometry" />
        </mxCell>
        <mxCell id="zkfFHV4jXpPFQw0GAbJ--19" value="createRace(string,string): int" style="text;align=left;verticalAlign=top;spacingLeft=4;spacingRight=4;overflow=hidden;rotatable=0;points=[[0,0.5],[1,0.5]];portConstraint=eastwest;rounded=0;shadow=0;html=0;" parent="zkfFHV4jXpPFQw0GAbJ--17" vertex="1">
          <mxGeometry y="302" width="440" height="26" as="geometry" />
        </mxCell>
        <mxCell id="zkfFHV4jXpPFQw0GAbJ--20" value="viewRaceDetails(int): String" style="text;align=left;verticalAlign=top;spacingLeft=4;spacingRight=4;overflow=hidden;rotatable=0;points=[[0,0.5],[1,0.5]];portConstraint=eastwest;rounded=0;shadow=0;html=0;" parent="zkfFHV4jXpPFQw0GAbJ--17" vertex="1">
          <mxGeometry y="328" width="440" height="26" as="geometry" />
        </mxCell>
        <mxCell id="zkfFHV4jXpPFQw0GAbJ--21" value="removeRaceById(int): void" style="text;align=left;verticalAlign=top;spacingLeft=4;spacingRight=4;overflow=hidden;rotatable=0;points=[[0,0.5],[1,0.5]];portConstraint=eastwest;rounded=0;shadow=0;html=0;" parent="zkfFHV4jXpPFQw0GAbJ--17" vertex="1">
          <mxGeometry y="354" width="440" height="26" as="geometry" />
        </mxCell>
        <mxCell id="zkfFHV4jXpPFQw0GAbJ--22" value="getNumberOfStages(int): int &#xa;" style="text;align=left;verticalAlign=top;spacingLeft=4;spacingRight=4;overflow=hidden;rotatable=0;points=[[0,0.5],[1,0.5]];portConstraint=eastwest;rounded=0;shadow=0;html=0;" parent="zkfFHV4jXpPFQw0GAbJ--17" vertex="1">
          <mxGeometry y="380" width="440" height="26" as="geometry" />
        </mxCell>
        <mxCell id="aWNSSflleup9wWjrLawX-42" value="AddStageToRace(int,String, String, double,LocalDateTime,StageType): int &#xa;" style="text;align=left;verticalAlign=top;spacingLeft=4;spacingRight=4;overflow=hidden;rotatable=0;points=[[0,0.5],[1,0.5]];portConstraint=eastwest;rounded=0;shadow=0;html=0;" parent="zkfFHV4jXpPFQw0GAbJ--17" vertex="1">
          <mxGeometry y="406" width="440" height="26" as="geometry" />
        </mxCell>
        <mxCell id="aWNSSflleup9wWjrLawX-43" value="getRaceStages(int): int[]" style="text;align=left;verticalAlign=top;spacingLeft=4;spacingRight=4;overflow=hidden;rotatable=0;points=[[0,0.5],[1,0.5]];portConstraint=eastwest;rounded=0;shadow=0;html=0;" parent="zkfFHV4jXpPFQw0GAbJ--17" vertex="1">
          <mxGeometry y="432" width="440" height="26" as="geometry" />
        </mxCell>
        <mxCell id="aWNSSflleup9wWjrLawX-44" value="getStageLength(int): double" style="text;align=left;verticalAlign=top;spacingLeft=4;spacingRight=4;overflow=hidden;rotatable=0;points=[[0,0.5],[1,0.5]];portConstraint=eastwest;rounded=0;shadow=0;html=0;" parent="zkfFHV4jXpPFQw0GAbJ--17" vertex="1">
          <mxGeometry y="458" width="440" height="26" as="geometry" />
        </mxCell>
        <mxCell id="aWNSSflleup9wWjrLawX-45" value="removeStageById(int): void&#xa;" style="text;align=left;verticalAlign=top;spacingLeft=4;spacingRight=4;overflow=hidden;rotatable=0;points=[[0,0.5],[1,0.5]];portConstraint=eastwest;rounded=0;shadow=0;html=0;" parent="zkfFHV4jXpPFQw0GAbJ--17" vertex="1">
          <mxGeometry y="484" width="440" height="26" as="geometry" />
        </mxCell>
        <mxCell id="qLTVdEFaLlppkx6XKRaZ-4" value="addCategorizedClimbToStage(int, Double, CheckpointType, Double, Double): int" style="text;align=left;verticalAlign=top;spacingLeft=4;spacingRight=4;overflow=hidden;rotatable=0;points=[[0,0.5],[1,0.5]];portConstraint=eastwest;rounded=0;shadow=0;html=0;" parent="zkfFHV4jXpPFQw0GAbJ--17" vertex="1">
          <mxGeometry y="510" width="440" height="26" as="geometry" />
        </mxCell>
        <mxCell id="qLTVdEFaLlppkx6XKRaZ-3" value="addIntermediateSprintToStage(int, double): int" style="text;align=left;verticalAlign=top;spacingLeft=4;spacingRight=4;overflow=hidden;rotatable=0;points=[[0,0.5],[1,0.5]];portConstraint=eastwest;rounded=0;shadow=0;html=0;" parent="zkfFHV4jXpPFQw0GAbJ--17" vertex="1">
          <mxGeometry y="536" width="440" height="26" as="geometry" />
        </mxCell>
        <mxCell id="qLTVdEFaLlppkx6XKRaZ-1" value="removeCheckpoint(int): void" style="text;align=left;verticalAlign=top;spacingLeft=4;spacingRight=4;overflow=hidden;rotatable=0;points=[[0,0.5],[1,0.5]];portConstraint=eastwest;rounded=0;shadow=0;html=0;" parent="zkfFHV4jXpPFQw0GAbJ--17" vertex="1">
          <mxGeometry y="562" width="440" height="26" as="geometry" />
        </mxCell>
        <mxCell id="qLTVdEFaLlppkx6XKRaZ-2" value="concludeStagePreparation(int): void" style="text;align=left;verticalAlign=top;spacingLeft=4;spacingRight=4;overflow=hidden;rotatable=0;points=[[0,0.5],[1,0.5]];portConstraint=eastwest;rounded=0;shadow=0;html=0;" parent="zkfFHV4jXpPFQw0GAbJ--17" vertex="1">
          <mxGeometry y="588" width="440" height="26" as="geometry" />
        </mxCell>
        <mxCell id="qLTVdEFaLlppkx6XKRaZ-0" value="getStageCheckpoints(int): int array" style="text;align=left;verticalAlign=top;spacingLeft=4;spacingRight=4;overflow=hidden;rotatable=0;points=[[0,0.5],[1,0.5]];portConstraint=eastwest;rounded=0;shadow=0;html=0;" parent="zkfFHV4jXpPFQw0GAbJ--17" vertex="1">
          <mxGeometry y="614" width="440" height="26" as="geometry" />
        </mxCell>
        <mxCell id="qLTVdEFaLlppkx6XKRaZ-10" value="createTeam(String, String): int" style="text;align=left;verticalAlign=top;spacingLeft=4;spacingRight=4;overflow=hidden;rotatable=0;points=[[0,0.5],[1,0.5]];portConstraint=eastwest;rounded=0;shadow=0;html=0;" parent="zkfFHV4jXpPFQw0GAbJ--17" vertex="1">
          <mxGeometry y="640" width="440" height="26" as="geometry" />
        </mxCell>
        <mxCell id="qLTVdEFaLlppkx6XKRaZ-9" value="removeTeam(int): void" style="text;align=left;verticalAlign=top;spacingLeft=4;spacingRight=4;overflow=hidden;rotatable=0;points=[[0,0.5],[1,0.5]];portConstraint=eastwest;rounded=0;shadow=0;html=0;" parent="zkfFHV4jXpPFQw0GAbJ--17" vertex="1">
          <mxGeometry y="666" width="440" height="26" as="geometry" />
        </mxCell>
        <mxCell id="qLTVdEFaLlppkx6XKRaZ-8" value="getTeams(): int array" style="text;align=left;verticalAlign=top;spacingLeft=4;spacingRight=4;overflow=hidden;rotatable=0;points=[[0,0.5],[1,0.5]];portConstraint=eastwest;rounded=0;shadow=0;html=0;" parent="zkfFHV4jXpPFQw0GAbJ--17" vertex="1">
          <mxGeometry y="692" width="440" height="26" as="geometry" />
        </mxCell>
        <mxCell id="qLTVdEFaLlppkx6XKRaZ-7" value="getTeamRiders(int): int array" style="text;align=left;verticalAlign=top;spacingLeft=4;spacingRight=4;overflow=hidden;rotatable=0;points=[[0,0.5],[1,0.5]];portConstraint=eastwest;rounded=0;shadow=0;html=0;" parent="zkfFHV4jXpPFQw0GAbJ--17" vertex="1">
          <mxGeometry y="718" width="440" height="26" as="geometry" />
        </mxCell>
        <mxCell id="qLTVdEFaLlppkx6XKRaZ-6" value="createRider(int, String, int): int" style="text;align=left;verticalAlign=top;spacingLeft=4;spacingRight=4;overflow=hidden;rotatable=0;points=[[0,0.5],[1,0.5]];portConstraint=eastwest;rounded=0;shadow=0;html=0;" parent="zkfFHV4jXpPFQw0GAbJ--17" vertex="1">
          <mxGeometry y="744" width="440" height="26" as="geometry" />
        </mxCell>
        <mxCell id="qLTVdEFaLlppkx6XKRaZ-5" value="removeRider(int): void" style="text;align=left;verticalAlign=top;spacingLeft=4;spacingRight=4;overflow=hidden;rotatable=0;points=[[0,0.5],[1,0.5]];portConstraint=eastwest;rounded=0;shadow=0;html=0;" parent="zkfFHV4jXpPFQw0GAbJ--17" vertex="1">
          <mxGeometry y="770" width="440" height="26" as="geometry" />
        </mxCell>
        <mxCell id="qLTVdEFaLlppkx6XKRaZ-13" value="registerRiderResultsInStage(int, int, LocalTime): void" style="text;align=left;verticalAlign=top;spacingLeft=4;spacingRight=4;overflow=hidden;rotatable=0;points=[[0,0.5],[1,0.5]];portConstraint=eastwest;rounded=0;shadow=0;html=0;" parent="zkfFHV4jXpPFQw0GAbJ--17" vertex="1">
          <mxGeometry y="796" width="440" height="26" as="geometry" />
        </mxCell>
        <mxCell id="qLTVdEFaLlppkx6XKRaZ-12" value="getRiderResultsInStage(int, int): LocalTime array " style="text;align=left;verticalAlign=top;spacingLeft=4;spacingRight=4;overflow=hidden;rotatable=0;points=[[0,0.5],[1,0.5]];portConstraint=eastwest;rounded=0;shadow=0;html=0;" parent="zkfFHV4jXpPFQw0GAbJ--17" vertex="1">
          <mxGeometry y="822" width="440" height="26" as="geometry" />
        </mxCell>
        <mxCell id="qLTVdEFaLlppkx6XKRaZ-11" value="getRiderAdjustedElapsedTimeInStage(int, int): LocalTime" style="text;align=left;verticalAlign=top;spacingLeft=4;spacingRight=4;overflow=hidden;rotatable=0;points=[[0,0.5],[1,0.5]];portConstraint=eastwest;rounded=0;shadow=0;html=0;" parent="zkfFHV4jXpPFQw0GAbJ--17" vertex="1">
          <mxGeometry y="848" width="440" height="26" as="geometry" />
        </mxCell>
        <mxCell id="qLTVdEFaLlppkx6XKRaZ-14" value="deleteRiderResultsInStage(int, int): void" style="text;align=left;verticalAlign=top;spacingLeft=4;spacingRight=4;overflow=hidden;rotatable=0;points=[[0,0.5],[1,0.5]];portConstraint=eastwest;rounded=0;shadow=0;html=0;" parent="zkfFHV4jXpPFQw0GAbJ--17" vertex="1">
          <mxGeometry y="874" width="440" height="26" as="geometry" />
        </mxCell>
        <mxCell id="qLTVdEFaLlppkx6XKRaZ-16" value="getRidersRankInStage(int): int array" style="text;align=left;verticalAlign=top;spacingLeft=4;spacingRight=4;overflow=hidden;rotatable=0;points=[[0,0.5],[1,0.5]];portConstraint=eastwest;rounded=0;shadow=0;html=0;" parent="zkfFHV4jXpPFQw0GAbJ--17" vertex="1">
          <mxGeometry y="900" width="440" height="26" as="geometry" />
        </mxCell>
        <mxCell id="qLTVdEFaLlppkx6XKRaZ-17" value="getRankedAdjustedElapsedTimeInStage(int): LocalTime array" style="text;align=left;verticalAlign=top;spacingLeft=4;spacingRight=4;overflow=hidden;rotatable=0;points=[[0,0.5],[1,0.5]];portConstraint=eastwest;rounded=0;shadow=0;html=0;" parent="zkfFHV4jXpPFQw0GAbJ--17" vertex="1">
          <mxGeometry y="926" width="440" height="26" as="geometry" />
        </mxCell>
        <mxCell id="qLTVdEFaLlppkx6XKRaZ-18" value="getRidersPointsInStage(int): int array" style="text;align=left;verticalAlign=top;spacingLeft=4;spacingRight=4;overflow=hidden;rotatable=0;points=[[0,0.5],[1,0.5]];portConstraint=eastwest;rounded=0;shadow=0;html=0;" parent="zkfFHV4jXpPFQw0GAbJ--17" vertex="1">
          <mxGeometry y="952" width="440" height="26" as="geometry" />
        </mxCell>
        <mxCell id="qLTVdEFaLlppkx6XKRaZ-19" value="getRidersMountainPointsInStage(int): int array" style="text;align=left;verticalAlign=top;spacingLeft=4;spacingRight=4;overflow=hidden;rotatable=0;points=[[0,0.5],[1,0.5]];portConstraint=eastwest;rounded=0;shadow=0;html=0;" parent="zkfFHV4jXpPFQw0GAbJ--17" vertex="1">
          <mxGeometry y="978" width="440" height="26" as="geometry" />
        </mxCell>
        <mxCell id="qLTVdEFaLlppkx6XKRaZ-20" value="eraseCyclingPortal(): void" style="text;align=left;verticalAlign=top;spacingLeft=4;spacingRight=4;overflow=hidden;rotatable=0;points=[[0,0.5],[1,0.5]];portConstraint=eastwest;rounded=0;shadow=0;html=0;" parent="zkfFHV4jXpPFQw0GAbJ--17" vertex="1">
          <mxGeometry y="1004" width="440" height="26" as="geometry" />
        </mxCell>
        <mxCell id="qLTVdEFaLlppkx6XKRaZ-21" value="saveCyclingPortal(String): void" style="text;align=left;verticalAlign=top;spacingLeft=4;spacingRight=4;overflow=hidden;rotatable=0;points=[[0,0.5],[1,0.5]];portConstraint=eastwest;rounded=0;shadow=0;html=0;" parent="zkfFHV4jXpPFQw0GAbJ--17" vertex="1">
          <mxGeometry y="1030" width="440" height="30" as="geometry" />
        </mxCell>
        <mxCell id="qLTVdEFaLlppkx6XKRaZ-23" value="loadCyclingPortal(String): void" style="text;align=left;verticalAlign=top;spacingLeft=4;spacingRight=4;overflow=hidden;rotatable=0;points=[[0,0.5],[1,0.5]];portConstraint=eastwest;rounded=0;shadow=0;html=0;" parent="zkfFHV4jXpPFQw0GAbJ--17" vertex="1">
          <mxGeometry y="1060" width="440" height="30" as="geometry" />
        </mxCell>
        <mxCell id="bQhxpnf4zEDF_hCfJMsT-1" value="removeRaceByName(String): void" style="text;align=left;verticalAlign=top;spacingLeft=4;spacingRight=4;overflow=hidden;rotatable=0;points=[[0,0.5],[1,0.5]];portConstraint=eastwest;" parent="zkfFHV4jXpPFQw0GAbJ--17" vertex="1">
          <mxGeometry y="1090" width="440" height="26" as="geometry" />
        </mxCell>
        <mxCell id="bQhxpnf4zEDF_hCfJMsT-7" value="getRidersMountainPointClassificationRank(int): int array" style="text;align=left;verticalAlign=top;spacingLeft=4;spacingRight=4;overflow=hidden;rotatable=0;points=[[0,0.5],[1,0.5]];portConstraint=eastwest;rounded=0;shadow=0;html=0;" parent="zkfFHV4jXpPFQw0GAbJ--17" vertex="1">
          <mxGeometry y="1116" width="440" height="26" as="geometry" />
        </mxCell>
        <mxCell id="bQhxpnf4zEDF_hCfJMsT-6" value="getRidersPointClassificationRank(int): int array" style="text;align=left;verticalAlign=top;spacingLeft=4;spacingRight=4;overflow=hidden;rotatable=0;points=[[0,0.5],[1,0.5]];portConstraint=eastwest;rounded=0;shadow=0;html=0;" parent="zkfFHV4jXpPFQw0GAbJ--17" vertex="1">
          <mxGeometry y="1142" width="440" height="26" as="geometry" />
        </mxCell>
        <mxCell id="bQhxpnf4zEDF_hCfJMsT-5" value="getRidersMountainPointsInRace(int): int array" style="text;align=left;verticalAlign=top;spacingLeft=4;spacingRight=4;overflow=hidden;rotatable=0;points=[[0,0.5],[1,0.5]];portConstraint=eastwest;rounded=0;shadow=0;html=0;" parent="zkfFHV4jXpPFQw0GAbJ--17" vertex="1">
          <mxGeometry y="1168" width="440" height="26" as="geometry" />
        </mxCell>
        <mxCell id="bQhxpnf4zEDF_hCfJMsT-4" value="getRidersPointsInRace(int): int array" style="text;align=left;verticalAlign=top;spacingLeft=4;spacingRight=4;overflow=hidden;rotatable=0;points=[[0,0.5],[1,0.5]];portConstraint=eastwest;rounded=0;shadow=0;html=0;" parent="zkfFHV4jXpPFQw0GAbJ--17" vertex="1">
          <mxGeometry y="1194" width="440" height="26" as="geometry" />
        </mxCell>
        <mxCell id="bQhxpnf4zEDF_hCfJMsT-3" value="getGeneralClassificationTimesInRace(int): LocalTime array" style="text;align=left;verticalAlign=top;spacingLeft=4;spacingRight=4;overflow=hidden;rotatable=0;points=[[0,0.5],[1,0.5]];portConstraint=eastwest;rounded=0;shadow=0;html=0;" parent="zkfFHV4jXpPFQw0GAbJ--17" vertex="1">
          <mxGeometry y="1220" width="440" height="26" as="geometry" />
        </mxCell>
        <mxCell id="bQhxpnf4zEDF_hCfJMsT-2" value="getRidersGeneralClassificationRank(int): int array" style="text;align=left;verticalAlign=top;spacingLeft=4;spacingRight=4;overflow=hidden;rotatable=0;points=[[0,0.5],[1,0.5]];portConstraint=eastwest;rounded=0;shadow=0;html=0;" parent="zkfFHV4jXpPFQw0GAbJ--17" vertex="1">
          <mxGeometry y="1246" width="440" height="26" as="geometry" />
        </mxCell>
        <mxCell id="n8QAIy7GEXvHhuEZce3j-6" value="" style="endArrow=none;html=1;rounded=0;exitX=-0.001;exitY=0.786;exitDx=0;exitDy=0;exitPerimeter=0;entryX=1.001;entryY=0.792;entryDx=0;entryDy=0;entryPerimeter=0;" edge="1" parent="zkfFHV4jXpPFQw0GAbJ--17" source="n8QAIy7GEXvHhuEZce3j-5" target="n8QAIy7GEXvHhuEZce3j-5">
          <mxGeometry width="50" height="50" relative="1" as="geometry">
            <mxPoint x="150" y="250" as="sourcePoint" />
            <mxPoint x="200" y="202" as="targetPoint" />
          </mxGeometry>
        </mxCell>
        <mxCell id="aaVzcD2_fwo34WTeyBTf-11" value="Team" style="swimlane;fontStyle=0;align=center;verticalAlign=top;childLayout=stackLayout;horizontal=1;startSize=26;horizontalStack=0;resizeParent=1;resizeLast=0;collapsible=1;marginBottom=0;rounded=0;shadow=0;strokeWidth=1;" parent="WIyWlLk6GJQsqaUBKTNV-1" vertex="1">
          <mxGeometry x="-665" y="750" width="260" height="480" as="geometry">
            <mxRectangle x="230" y="140" width="160" height="26" as="alternateBounds" />
          </mxGeometry>
        </mxCell>
        <mxCell id="aaVzcD2_fwo34WTeyBTf-12" value="Name: String" style="text;align=left;verticalAlign=top;spacingLeft=4;spacingRight=4;overflow=hidden;rotatable=0;points=[[0,0.5],[1,0.5]];portConstraint=eastwest;" parent="aaVzcD2_fwo34WTeyBTf-11" vertex="1">
          <mxGeometry y="26" width="260" height="26" as="geometry" />
        </mxCell>
        <mxCell id="aaVzcD2_fwo34WTeyBTf-14" value="Nationality: String" style="text;align=left;verticalAlign=top;spacingLeft=4;spacingRight=4;overflow=hidden;rotatable=0;points=[[0,0.5],[1,0.5]];portConstraint=eastwest;rounded=0;shadow=0;html=0;" parent="aaVzcD2_fwo34WTeyBTf-11" vertex="1">
          <mxGeometry y="52" width="260" height="26" as="geometry" />
        </mxCell>
        <mxCell id="aaVzcD2_fwo34WTeyBTf-16" value="Riders: Rider[]" style="text;align=left;verticalAlign=top;spacingLeft=4;spacingRight=4;overflow=hidden;rotatable=0;points=[[0,0.5],[1,0.5]];portConstraint=eastwest;rounded=0;shadow=0;html=0;" parent="aaVzcD2_fwo34WTeyBTf-11" vertex="1">
          <mxGeometry y="78" width="260" height="26" as="geometry" />
        </mxCell>
        <mxCell id="aaVzcD2_fwo34WTeyBTf-97" value="TeamId: int" style="text;align=left;verticalAlign=top;spacingLeft=4;spacingRight=4;overflow=hidden;rotatable=0;points=[[0,0.5],[1,0.5]];portConstraint=eastwest;rounded=0;shadow=0;html=0;" parent="aaVzcD2_fwo34WTeyBTf-11" vertex="1">
          <mxGeometry y="104" width="260" height="26" as="geometry" />
        </mxCell>
        <mxCell id="Yn97bhyg1CkWvzF4sl9t-103" value="Description: String" style="text;align=left;verticalAlign=top;spacingLeft=4;spacingRight=4;overflow=hidden;rotatable=0;points=[[0,0.5],[1,0.5]];portConstraint=eastwest;rounded=0;shadow=0;html=0;" parent="aaVzcD2_fwo34WTeyBTf-11" vertex="1">
          <mxGeometry y="130" width="260" height="26" as="geometry" />
        </mxCell>
        <mxCell id="aaVzcD2_fwo34WTeyBTf-17" value="" style="line;html=1;strokeWidth=1;align=left;verticalAlign=middle;spacingTop=-1;spacingLeft=3;spacingRight=3;rotatable=0;labelPosition=right;points=[];portConstraint=eastwest;" parent="aaVzcD2_fwo34WTeyBTf-11" vertex="1">
          <mxGeometry y="156" width="260" height="12" as="geometry" />
        </mxCell>
        <mxCell id="aaVzcD2_fwo34WTeyBTf-18" value="getDescription(): String" style="text;align=left;verticalAlign=top;spacingLeft=4;spacingRight=4;overflow=hidden;rotatable=0;points=[[0,0.5],[1,0.5]];portConstraint=eastwest;" parent="aaVzcD2_fwo34WTeyBTf-11" vertex="1">
          <mxGeometry y="168" width="260" height="32" as="geometry" />
        </mxCell>
        <mxCell id="aaVzcD2_fwo34WTeyBTf-19" value="setDescription(String): void" style="text;align=left;verticalAlign=top;spacingLeft=4;spacingRight=4;overflow=hidden;rotatable=0;points=[[0,0.5],[1,0.5]];portConstraint=eastwest;" parent="aaVzcD2_fwo34WTeyBTf-11" vertex="1">
          <mxGeometry y="200" width="260" height="32" as="geometry" />
        </mxCell>
        <mxCell id="aaVzcD2_fwo34WTeyBTf-20" value="getTeamName(): String" style="text;align=left;verticalAlign=top;spacingLeft=4;spacingRight=4;overflow=hidden;rotatable=0;points=[[0,0.5],[1,0.5]];portConstraint=eastwest;" parent="aaVzcD2_fwo34WTeyBTf-11" vertex="1">
          <mxGeometry y="232" width="260" height="30" as="geometry" />
        </mxCell>
        <mxCell id="PE1VXV2BmYIQWuOUvCGY-11" value="setTeamName(String): void" style="text;align=left;verticalAlign=top;spacingLeft=4;spacingRight=4;overflow=hidden;rotatable=0;points=[[0,0.5],[1,0.5]];portConstraint=eastwest;" parent="aaVzcD2_fwo34WTeyBTf-11" vertex="1">
          <mxGeometry y="262" width="260" height="30" as="geometry" />
        </mxCell>
        <mxCell id="PE1VXV2BmYIQWuOUvCGY-12" value="getNationality(): String" style="text;align=left;verticalAlign=top;spacingLeft=4;spacingRight=4;overflow=hidden;rotatable=0;points=[[0,0.5],[1,0.5]];portConstraint=eastwest;" parent="aaVzcD2_fwo34WTeyBTf-11" vertex="1">
          <mxGeometry y="292" width="260" height="30" as="geometry" />
        </mxCell>
        <mxCell id="PE1VXV2BmYIQWuOUvCGY-13" value="setNationality(String): void" style="text;align=left;verticalAlign=top;spacingLeft=4;spacingRight=4;overflow=hidden;rotatable=0;points=[[0,0.5],[1,0.5]];portConstraint=eastwest;" parent="aaVzcD2_fwo34WTeyBTf-11" vertex="1">
          <mxGeometry y="322" width="260" height="30" as="geometry" />
        </mxCell>
        <mxCell id="PE1VXV2BmYIQWuOUvCGY-14" value="getRiders(): Rider[]" style="text;align=left;verticalAlign=top;spacingLeft=4;spacingRight=4;overflow=hidden;rotatable=0;points=[[0,0.5],[1,0.5]];portConstraint=eastwest;" parent="aaVzcD2_fwo34WTeyBTf-11" vertex="1">
          <mxGeometry y="352" width="260" height="30" as="geometry" />
        </mxCell>
        <mxCell id="PE1VXV2BmYIQWuOUvCGY-15" value="setRiders(Rider[]): void" style="text;align=left;verticalAlign=top;spacingLeft=4;spacingRight=4;overflow=hidden;rotatable=0;points=[[0,0.5],[1,0.5]];portConstraint=eastwest;" parent="aaVzcD2_fwo34WTeyBTf-11" vertex="1">
          <mxGeometry y="382" width="260" height="30" as="geometry" />
        </mxCell>
        <mxCell id="PE1VXV2BmYIQWuOUvCGY-16" value="getId(): int" style="text;align=left;verticalAlign=top;spacingLeft=4;spacingRight=4;overflow=hidden;rotatable=0;points=[[0,0.5],[1,0.5]];portConstraint=eastwest;" parent="aaVzcD2_fwo34WTeyBTf-11" vertex="1">
          <mxGeometry y="412" width="260" height="30" as="geometry" />
        </mxCell>
        <mxCell id="PE1VXV2BmYIQWuOUvCGY-17" value="addRider(Rider): void" style="text;align=left;verticalAlign=top;spacingLeft=4;spacingRight=4;overflow=hidden;rotatable=0;points=[[0,0.5],[1,0.5]];portConstraint=eastwest;" parent="aaVzcD2_fwo34WTeyBTf-11" vertex="1">
          <mxGeometry y="442" width="260" height="30" as="geometry" />
        </mxCell>
        <mxCell id="aaVzcD2_fwo34WTeyBTf-33" value="Races" style="swimlane;fontStyle=0;align=center;verticalAlign=top;childLayout=stackLayout;horizontal=1;startSize=26;horizontalStack=0;resizeParent=1;resizeLast=0;collapsible=1;marginBottom=0;rounded=0;shadow=0;strokeWidth=1;" parent="WIyWlLk6GJQsqaUBKTNV-1" vertex="1">
          <mxGeometry x="-490" y="-380" width="330" height="1010" as="geometry">
            <mxRectangle x="230" y="140" width="160" height="26" as="alternateBounds" />
          </mxGeometry>
        </mxCell>
        <mxCell id="aaVzcD2_fwo34WTeyBTf-34" value="TeamsArray: Team[]" style="text;align=left;verticalAlign=top;spacingLeft=4;spacingRight=4;overflow=hidden;rotatable=0;points=[[0,0.5],[1,0.5]];portConstraint=eastwest;" parent="aaVzcD2_fwo34WTeyBTf-33" vertex="1">
          <mxGeometry y="26" width="330" height="26" as="geometry" />
        </mxCell>
        <mxCell id="aaVzcD2_fwo34WTeyBTf-35" value="Racename: String" style="text;align=left;verticalAlign=top;spacingLeft=4;spacingRight=4;overflow=hidden;rotatable=0;points=[[0,0.5],[1,0.5]];portConstraint=eastwest;rounded=0;shadow=0;html=0;" parent="aaVzcD2_fwo34WTeyBTf-33" vertex="1">
          <mxGeometry y="52" width="330" height="26" as="geometry" />
        </mxCell>
        <mxCell id="aaVzcD2_fwo34WTeyBTf-38" value="StagesArray: Stage[]" style="text;align=left;verticalAlign=top;spacingLeft=4;spacingRight=4;overflow=hidden;rotatable=0;points=[[0,0.5],[1,0.5]];portConstraint=eastwest;rounded=0;shadow=0;html=0;" parent="aaVzcD2_fwo34WTeyBTf-33" vertex="1">
          <mxGeometry y="78" width="330" height="26" as="geometry" />
        </mxCell>
        <mxCell id="Yn97bhyg1CkWvzF4sl9t-3" value="StageId: int" style="text;align=left;verticalAlign=top;spacingLeft=4;spacingRight=4;overflow=hidden;rotatable=0;points=[[0,0.5],[1,0.5]];portConstraint=eastwest;rounded=0;shadow=0;html=0;" parent="aaVzcD2_fwo34WTeyBTf-33" vertex="1">
          <mxGeometry y="104" width="330" height="26" as="geometry" />
        </mxCell>
        <mxCell id="Yn97bhyg1CkWvzF4sl9t-4" value="Description: String" style="text;align=left;verticalAlign=top;spacingLeft=4;spacingRight=4;overflow=hidden;rotatable=0;points=[[0,0.5],[1,0.5]];portConstraint=eastwest;rounded=0;shadow=0;html=0;" parent="aaVzcD2_fwo34WTeyBTf-33" vertex="1">
          <mxGeometry y="130" width="330" height="26" as="geometry" />
        </mxCell>
        <mxCell id="aaVzcD2_fwo34WTeyBTf-40" value="" style="line;html=1;strokeWidth=1;align=left;verticalAlign=middle;spacingTop=-1;spacingLeft=3;spacingRight=3;rotatable=0;labelPosition=right;points=[];portConstraint=eastwest;" parent="aaVzcD2_fwo34WTeyBTf-33" vertex="1">
          <mxGeometry y="156" width="330" height="12" as="geometry" />
        </mxCell>
        <mxCell id="Yn97bhyg1CkWvzF4sl9t-72" value="getTeams(): Team[]" style="text;align=left;verticalAlign=top;spacingLeft=4;spacingRight=4;overflow=hidden;rotatable=0;points=[[0,0.5],[1,0.5]];portConstraint=eastwest;rounded=0;shadow=0;html=0;" parent="aaVzcD2_fwo34WTeyBTf-33" vertex="1">
          <mxGeometry y="168" width="330" height="30" as="geometry" />
        </mxCell>
        <mxCell id="Yn97bhyg1CkWvzF4sl9t-71" value="setTeams(Team[]): void" style="text;align=left;verticalAlign=top;spacingLeft=4;spacingRight=4;overflow=hidden;rotatable=0;points=[[0,0.5],[1,0.5]];portConstraint=eastwest;rounded=0;shadow=0;html=0;" parent="aaVzcD2_fwo34WTeyBTf-33" vertex="1">
          <mxGeometry y="198" width="330" height="30" as="geometry" />
        </mxCell>
        <mxCell id="aaVzcD2_fwo34WTeyBTf-42" value="getRacename(): String" style="text;align=left;verticalAlign=top;spacingLeft=4;spacingRight=4;overflow=hidden;rotatable=0;points=[[0,0.5],[1,0.5]];portConstraint=eastwest;" parent="aaVzcD2_fwo34WTeyBTf-33" vertex="1">
          <mxGeometry y="228" width="330" height="30" as="geometry" />
        </mxCell>
        <mxCell id="Yn97bhyg1CkWvzF4sl9t-74" value="setRacename(String): void" style="text;align=left;verticalAlign=top;spacingLeft=4;spacingRight=4;overflow=hidden;rotatable=0;points=[[0,0.5],[1,0.5]];portConstraint=eastwest;" parent="aaVzcD2_fwo34WTeyBTf-33" vertex="1">
          <mxGeometry y="258" width="330" height="30" as="geometry" />
        </mxCell>
        <mxCell id="Yn97bhyg1CkWvzF4sl9t-75" value="getStages(): Stages[]" style="text;align=left;verticalAlign=top;spacingLeft=4;spacingRight=4;overflow=hidden;rotatable=0;points=[[0,0.5],[1,0.5]];portConstraint=eastwest;" parent="aaVzcD2_fwo34WTeyBTf-33" vertex="1">
          <mxGeometry y="288" width="330" height="30" as="geometry" />
        </mxCell>
        <mxCell id="Yn97bhyg1CkWvzF4sl9t-80" value="setStages(Stages[]): void" style="text;align=left;verticalAlign=top;spacingLeft=4;spacingRight=4;overflow=hidden;rotatable=0;points=[[0,0.5],[1,0.5]];portConstraint=eastwest;" parent="aaVzcD2_fwo34WTeyBTf-33" vertex="1">
          <mxGeometry y="318" width="330" height="30" as="geometry" />
        </mxCell>
        <mxCell id="Yn97bhyg1CkWvzF4sl9t-79" value="getRaceId(): int" style="text;align=left;verticalAlign=top;spacingLeft=4;spacingRight=4;overflow=hidden;rotatable=0;points=[[0,0.5],[1,0.5]];portConstraint=eastwest;" parent="aaVzcD2_fwo34WTeyBTf-33" vertex="1">
          <mxGeometry y="348" width="330" height="30" as="geometry" />
        </mxCell>
        <mxCell id="Yn97bhyg1CkWvzF4sl9t-76" value="setRaceId(int): void" style="text;align=left;verticalAlign=top;spacingLeft=4;spacingRight=4;overflow=hidden;rotatable=0;points=[[0,0.5],[1,0.5]];portConstraint=eastwest;" parent="aaVzcD2_fwo34WTeyBTf-33" vertex="1">
          <mxGeometry y="378" width="330" height="30" as="geometry" />
        </mxCell>
        <mxCell id="Yn97bhyg1CkWvzF4sl9t-77" value="getId(): int" style="text;align=left;verticalAlign=top;spacingLeft=4;spacingRight=4;overflow=hidden;rotatable=0;points=[[0,0.5],[1,0.5]];portConstraint=eastwest;" parent="aaVzcD2_fwo34WTeyBTf-33" vertex="1">
          <mxGeometry y="408" width="330" height="30" as="geometry" />
        </mxCell>
        <mxCell id="Yn97bhyg1CkWvzF4sl9t-78" value="setId(int): void" style="text;align=left;verticalAlign=top;spacingLeft=4;spacingRight=4;overflow=hidden;rotatable=0;points=[[0,0.5],[1,0.5]];portConstraint=eastwest;" parent="aaVzcD2_fwo34WTeyBTf-33" vertex="1">
          <mxGeometry y="438" width="330" height="30" as="geometry" />
        </mxCell>
        <mxCell id="Yn97bhyg1CkWvzF4sl9t-81" value="getDescription(): String" style="text;align=left;verticalAlign=top;spacingLeft=4;spacingRight=4;overflow=hidden;rotatable=0;points=[[0,0.5],[1,0.5]];portConstraint=eastwest;" parent="aaVzcD2_fwo34WTeyBTf-33" vertex="1">
          <mxGeometry y="468" width="330" height="30" as="geometry" />
        </mxCell>
        <mxCell id="Yn97bhyg1CkWvzF4sl9t-86" value="setDescription(String): void" style="text;align=left;verticalAlign=top;spacingLeft=4;spacingRight=4;overflow=hidden;rotatable=0;points=[[0,0.5],[1,0.5]];portConstraint=eastwest;" parent="aaVzcD2_fwo34WTeyBTf-33" vertex="1">
          <mxGeometry y="498" width="330" height="30" as="geometry" />
        </mxCell>
        <mxCell id="Yn97bhyg1CkWvzF4sl9t-85" value="getTotalStages(): int" style="text;align=left;verticalAlign=top;spacingLeft=4;spacingRight=4;overflow=hidden;rotatable=0;points=[[0,0.5],[1,0.5]];portConstraint=eastwest;" parent="aaVzcD2_fwo34WTeyBTf-33" vertex="1">
          <mxGeometry y="528" width="330" height="30" as="geometry" />
        </mxCell>
        <mxCell id="Yn97bhyg1CkWvzF4sl9t-82" value="addTeam(Team): void" style="text;align=left;verticalAlign=top;spacingLeft=4;spacingRight=4;overflow=hidden;rotatable=0;points=[[0,0.5],[1,0.5]];portConstraint=eastwest;" parent="aaVzcD2_fwo34WTeyBTf-33" vertex="1">
          <mxGeometry y="558" width="330" height="30" as="geometry" />
        </mxCell>
        <mxCell id="Yn97bhyg1CkWvzF4sl9t-83" value="removeTeam`(Team): void" style="text;align=left;verticalAlign=top;spacingLeft=4;spacingRight=4;overflow=hidden;rotatable=0;points=[[0,0.5],[1,0.5]];portConstraint=eastwest;" parent="aaVzcD2_fwo34WTeyBTf-33" vertex="1">
          <mxGeometry y="588" width="330" height="30" as="geometry" />
        </mxCell>
        <mxCell id="Yn97bhyg1CkWvzF4sl9t-84" value="addStage(Stages): void" style="text;align=left;verticalAlign=top;spacingLeft=4;spacingRight=4;overflow=hidden;rotatable=0;points=[[0,0.5],[1,0.5]];portConstraint=eastwest;" parent="aaVzcD2_fwo34WTeyBTf-33" vertex="1">
          <mxGeometry y="618" width="330" height="30" as="geometry" />
        </mxCell>
        <mxCell id="Yn97bhyg1CkWvzF4sl9t-87" value="removeStage(Stages): void" style="text;align=left;verticalAlign=top;spacingLeft=4;spacingRight=4;overflow=hidden;rotatable=0;points=[[0,0.5],[1,0.5]];portConstraint=eastwest;" parent="aaVzcD2_fwo34WTeyBTf-33" vertex="1">
          <mxGeometry y="648" width="330" height="30" as="geometry" />
        </mxCell>
        <mxCell id="Yn97bhyg1CkWvzF4sl9t-89" value="getTeamName(int): String" style="text;align=left;verticalAlign=top;spacingLeft=4;spacingRight=4;overflow=hidden;rotatable=0;points=[[0,0.5],[1,0.5]];portConstraint=eastwest;" parent="aaVzcD2_fwo34WTeyBTf-33" vertex="1">
          <mxGeometry y="678" width="330" height="32" as="geometry" />
        </mxCell>
        <mxCell id="PE1VXV2BmYIQWuOUvCGY-2" value="GetAllStagesPoints(): List&lt;Map&lt;Integer, Integer&gt;&gt;" style="text;align=left;verticalAlign=top;spacingLeft=4;spacingRight=4;overflow=hidden;rotatable=0;points=[[0,0.5],[1,0.5]];portConstraint=eastwest;" parent="aaVzcD2_fwo34WTeyBTf-33" vertex="1">
          <mxGeometry y="710" width="330" height="32" as="geometry" />
        </mxCell>
        <mxCell id="PE1VXV2BmYIQWuOUvCGY-3" value="GetAllStagesMountainPoints(): List&lt;Map&lt;Integer, Integer&gt;&gt;" style="text;align=left;verticalAlign=top;spacingLeft=4;spacingRight=4;overflow=hidden;rotatable=0;points=[[0,0.5],[1,0.5]];portConstraint=eastwest;" parent="aaVzcD2_fwo34WTeyBTf-33" vertex="1">
          <mxGeometry y="742" width="330" height="32" as="geometry" />
        </mxCell>
        <mxCell id="PE1VXV2BmYIQWuOUvCGY-4" value="GetAllStagesData(): List&lt;List&lt;Object&gt;&gt;" style="text;align=left;verticalAlign=top;spacingLeft=4;spacingRight=4;overflow=hidden;rotatable=0;points=[[0,0.5],[1,0.5]];portConstraint=eastwest;" parent="aaVzcD2_fwo34WTeyBTf-33" vertex="1">
          <mxGeometry y="774" width="330" height="32" as="geometry" />
        </mxCell>
        <mxCell id="PE1VXV2BmYIQWuOUvCGY-5" value="getGeneralClassificationTimesInRacemethod(): LocalTime[]" style="text;align=left;verticalAlign=top;spacingLeft=4;spacingRight=4;overflow=hidden;rotatable=0;points=[[0,0.5],[1,0.5]];portConstraint=eastwest;" parent="aaVzcD2_fwo34WTeyBTf-33" vertex="1">
          <mxGeometry y="806" width="330" height="32" as="geometry" />
        </mxCell>
        <mxCell id="PE1VXV2BmYIQWuOUvCGY-6" value="getRidersGeneralClassificationRankMethod: int[]" style="text;align=left;verticalAlign=top;spacingLeft=4;spacingRight=4;overflow=hidden;rotatable=0;points=[[0,0.5],[1,0.5]];portConstraint=eastwest;" parent="aaVzcD2_fwo34WTeyBTf-33" vertex="1">
          <mxGeometry y="838" width="330" height="32" as="geometry" />
        </mxCell>
        <mxCell id="PE1VXV2BmYIQWuOUvCGY-8" value="getRidersMountainPointsInRace: int[]" style="text;align=left;verticalAlign=top;spacingLeft=4;spacingRight=4;overflow=hidden;rotatable=0;points=[[0,0.5],[1,0.5]];portConstraint=eastwest;" parent="aaVzcD2_fwo34WTeyBTf-33" vertex="1">
          <mxGeometry y="870" width="330" height="32" as="geometry" />
        </mxCell>
        <mxCell id="PE1VXV2BmYIQWuOUvCGY-9" value="getRidersPointClassificationRank: int[]" style="text;align=left;verticalAlign=top;spacingLeft=4;spacingRight=4;overflow=hidden;rotatable=0;points=[[0,0.5],[1,0.5]];portConstraint=eastwest;" parent="aaVzcD2_fwo34WTeyBTf-33" vertex="1">
          <mxGeometry y="902" width="330" height="32" as="geometry" />
        </mxCell>
        <mxCell id="PE1VXV2BmYIQWuOUvCGY-10" value="getRidersMountainPointClassificationRank(): int[]" style="text;align=left;verticalAlign=top;spacingLeft=4;spacingRight=4;overflow=hidden;rotatable=0;points=[[0,0.5],[1,0.5]];portConstraint=eastwest;" parent="aaVzcD2_fwo34WTeyBTf-33" vertex="1">
          <mxGeometry y="934" width="330" height="32" as="geometry" />
        </mxCell>
        <mxCell id="PE1VXV2BmYIQWuOUvCGY-7" value="getRidersPointsInRace(): int[]" style="text;align=left;verticalAlign=top;spacingLeft=4;spacingRight=4;overflow=hidden;rotatable=0;points=[[0,0.5],[1,0.5]];portConstraint=eastwest;" parent="aaVzcD2_fwo34WTeyBTf-33" vertex="1">
          <mxGeometry y="966" width="330" height="44" as="geometry" />
        </mxCell>
        <mxCell id="aaVzcD2_fwo34WTeyBTf-46" value="Rider" style="swimlane;fontStyle=0;align=center;verticalAlign=top;childLayout=stackLayout;horizontal=1;startSize=26;horizontalStack=0;resizeParent=1;resizeLast=0;collapsible=1;marginBottom=0;rounded=0;shadow=0;strokeWidth=1;" parent="WIyWlLk6GJQsqaUBKTNV-1" vertex="1">
          <mxGeometry x="-670" y="1430" width="270" height="550" as="geometry">
            <mxRectangle x="230" y="140" width="160" height="26" as="alternateBounds" />
          </mxGeometry>
        </mxCell>
        <mxCell id="Yn97bhyg1CkWvzF4sl9t-107" value="Name: String" style="text;align=left;verticalAlign=top;spacingLeft=4;spacingRight=4;overflow=hidden;rotatable=0;points=[[0,0.5],[1,0.5]];portConstraint=eastwest;" parent="aaVzcD2_fwo34WTeyBTf-46" vertex="1">
          <mxGeometry y="26" width="270" height="26" as="geometry" />
        </mxCell>
        <mxCell id="Yn97bhyg1CkWvzF4sl9t-108" value="Nationality: String" style="text;align=left;verticalAlign=top;spacingLeft=4;spacingRight=4;overflow=hidden;rotatable=0;points=[[0,0.5],[1,0.5]];portConstraint=eastwest;rounded=0;shadow=0;html=0;" parent="aaVzcD2_fwo34WTeyBTf-46" vertex="1">
          <mxGeometry y="52" width="270" height="26" as="geometry" />
        </mxCell>
        <mxCell id="aaVzcD2_fwo34WTeyBTf-50" value="Age: int" style="text;align=left;verticalAlign=top;spacingLeft=4;spacingRight=4;overflow=hidden;rotatable=0;points=[[0,0.5],[1,0.5]];portConstraint=eastwest;rounded=0;shadow=0;html=0;" parent="aaVzcD2_fwo34WTeyBTf-46" vertex="1">
          <mxGeometry y="78" width="270" height="26" as="geometry" />
        </mxCell>
        <mxCell id="aaVzcD2_fwo34WTeyBTf-51" value="RiderId: int" style="text;align=left;verticalAlign=top;spacingLeft=4;spacingRight=4;overflow=hidden;rotatable=0;points=[[0,0.5],[1,0.5]];portConstraint=eastwest;rounded=0;shadow=0;html=0;" parent="aaVzcD2_fwo34WTeyBTf-46" vertex="1">
          <mxGeometry y="104" width="270" height="26" as="geometry" />
        </mxCell>
        <mxCell id="aaVzcD2_fwo34WTeyBTf-52" value="team: Team" style="text;align=left;verticalAlign=top;spacingLeft=4;spacingRight=4;overflow=hidden;rotatable=0;points=[[0,0.5],[1,0.5]];portConstraint=eastwest;rounded=0;shadow=0;html=0;fontStyle=0" parent="aaVzcD2_fwo34WTeyBTf-46" vertex="1">
          <mxGeometry y="130" width="270" height="26" as="geometry" />
        </mxCell>
        <mxCell id="Yn97bhyg1CkWvzF4sl9t-109" value="YearOfBirth: int" style="text;align=left;verticalAlign=top;spacingLeft=4;spacingRight=4;overflow=hidden;rotatable=0;points=[[0,0.5],[1,0.5]];portConstraint=eastwest;rounded=0;shadow=0;html=0;fontStyle=0" parent="aaVzcD2_fwo34WTeyBTf-46" vertex="1">
          <mxGeometry y="156" width="270" height="26" as="geometry" />
        </mxCell>
        <mxCell id="aaVzcD2_fwo34WTeyBTf-53" value="" style="line;html=1;strokeWidth=1;align=left;verticalAlign=middle;spacingTop=-1;spacingLeft=3;spacingRight=3;rotatable=0;labelPosition=right;points=[];portConstraint=eastwest;" parent="aaVzcD2_fwo34WTeyBTf-46" vertex="1">
          <mxGeometry y="182" width="270" height="12" as="geometry" />
        </mxCell>
        <mxCell id="Yn97bhyg1CkWvzF4sl9t-111" value="getNationality(): String" style="text;align=left;verticalAlign=top;spacingLeft=4;spacingRight=4;overflow=hidden;rotatable=0;points=[[0,0.5],[1,0.5]];portConstraint=eastwest;" parent="aaVzcD2_fwo34WTeyBTf-46" vertex="1">
          <mxGeometry y="194" width="270" height="32" as="geometry" />
        </mxCell>
        <mxCell id="Yn97bhyg1CkWvzF4sl9t-112" value="setNationality(String): void" style="text;align=left;verticalAlign=top;spacingLeft=4;spacingRight=4;overflow=hidden;rotatable=0;points=[[0,0.5],[1,0.5]];portConstraint=eastwest;" parent="aaVzcD2_fwo34WTeyBTf-46" vertex="1">
          <mxGeometry y="226" width="270" height="32" as="geometry" />
        </mxCell>
        <mxCell id="Yn97bhyg1CkWvzF4sl9t-115" value="toString(): String&#xa;&#xa;getname(): String&#xa;&#xa;setname(String): void&#xa;&#xa;getAge(): Age&#xa;&#xa;getRiderId(): int&#xa;&#xa;setRiderId(int): void&#xa;&#xa;getTeam(): Team&#xa;&#xa;setTeam(): void&#xa;&#xa;getYearOfBirth(): int&#xa;&#xa;setYearOfBirth(int): void&#xa;&#xa;&#xa;&#xa;" style="text;align=left;verticalAlign=top;spacingLeft=4;spacingRight=4;overflow=hidden;rotatable=0;points=[[0,0.5],[1,0.5]];portConstraint=eastwest;" parent="aaVzcD2_fwo34WTeyBTf-46" vertex="1">
          <mxGeometry y="258" width="270" height="292" as="geometry" />
        </mxCell>
        <mxCell id="aaVzcD2_fwo34WTeyBTf-57" value="Stages" style="swimlane;fontStyle=0;align=center;verticalAlign=top;childLayout=stackLayout;horizontal=1;startSize=26;horizontalStack=0;resizeParent=1;resizeLast=0;collapsible=1;marginBottom=0;rounded=0;shadow=0;strokeWidth=1;" parent="WIyWlLk6GJQsqaUBKTNV-1" vertex="1">
          <mxGeometry x="-240" y="738" width="390" height="1160" as="geometry">
            <mxRectangle x="230" y="140" width="160" height="26" as="alternateBounds" />
          </mxGeometry>
        </mxCell>
        <mxCell id="aaVzcD2_fwo34WTeyBTf-58" value="stageType: StageType" style="text;align=left;verticalAlign=top;spacingLeft=4;spacingRight=4;overflow=hidden;rotatable=0;points=[[0,0.5],[1,0.5]];portConstraint=eastwest;" parent="aaVzcD2_fwo34WTeyBTf-57" vertex="1">
          <mxGeometry y="26" width="390" height="26" as="geometry" />
        </mxCell>
        <mxCell id="aaVzcD2_fwo34WTeyBTf-59" value="Length: double" style="text;align=left;verticalAlign=top;spacingLeft=4;spacingRight=4;overflow=hidden;rotatable=0;points=[[0,0.5],[1,0.5]];portConstraint=eastwest;rounded=0;shadow=0;html=0;" parent="aaVzcD2_fwo34WTeyBTf-57" vertex="1">
          <mxGeometry y="52" width="390" height="26" as="geometry" />
        </mxCell>
        <mxCell id="aaVzcD2_fwo34WTeyBTf-60" value="checkpoints: Checkpoint[]" style="text;align=left;verticalAlign=top;spacingLeft=4;spacingRight=4;overflow=hidden;rotatable=0;points=[[0,0.5],[1,0.5]];portConstraint=eastwest;rounded=0;shadow=0;html=0;" parent="aaVzcD2_fwo34WTeyBTf-57" vertex="1">
          <mxGeometry y="78" width="390" height="26" as="geometry" />
        </mxCell>
        <mxCell id="6M48oYMWb6oDqVLGl2mA-0" value="List&lt;Integer&gt;: checkpointIds" style="text;align=left;verticalAlign=top;spacingLeft=4;spacingRight=4;overflow=hidden;rotatable=0;points=[[0,0.5],[1,0.5]];portConstraint=eastwest;rounded=0;shadow=0;html=0;" parent="aaVzcD2_fwo34WTeyBTf-57" vertex="1">
          <mxGeometry y="104" width="390" height="26" as="geometry" />
        </mxCell>
        <mxCell id="aaVzcD2_fwo34WTeyBTf-98" value="StageId: int" style="text;align=left;verticalAlign=top;spacingLeft=4;spacingRight=4;overflow=hidden;rotatable=0;points=[[0,0.5],[1,0.5]];portConstraint=eastwest;rounded=0;shadow=0;html=0;" parent="aaVzcD2_fwo34WTeyBTf-57" vertex="1">
          <mxGeometry y="130" width="390" height="26" as="geometry" />
        </mxCell>
        <mxCell id="Yn97bhyg1CkWvzF4sl9t-8" value="StartTime: LocalDateTime " style="text;align=left;verticalAlign=top;spacingLeft=4;spacingRight=4;overflow=hidden;rotatable=0;points=[[0,0.5],[1,0.5]];portConstraint=eastwest;rounded=0;shadow=0;html=0;" parent="aaVzcD2_fwo34WTeyBTf-57" vertex="1">
          <mxGeometry y="156" width="390" height="26" as="geometry" />
        </mxCell>
        <mxCell id="Yn97bhyg1CkWvzF4sl9t-7" value="Name: String" style="text;align=left;verticalAlign=top;spacingLeft=4;spacingRight=4;overflow=hidden;rotatable=0;points=[[0,0.5],[1,0.5]];portConstraint=eastwest;rounded=0;shadow=0;html=0;" parent="aaVzcD2_fwo34WTeyBTf-57" vertex="1">
          <mxGeometry y="182" width="390" height="26" as="geometry" />
        </mxCell>
        <mxCell id="Yn97bhyg1CkWvzF4sl9t-12" value="State: StageState" style="text;align=left;verticalAlign=top;spacingLeft=4;spacingRight=4;overflow=hidden;rotatable=0;points=[[0,0.5],[1,0.5]];portConstraint=eastwest;rounded=0;shadow=0;html=0;" parent="aaVzcD2_fwo34WTeyBTf-57" vertex="1">
          <mxGeometry y="208" width="390" height="26" as="geometry" />
        </mxCell>
        <mxCell id="Yn97bhyg1CkWvzF4sl9t-10" value="checkpointType: CheckpointType" style="text;align=left;verticalAlign=top;spacingLeft=4;spacingRight=4;overflow=hidden;rotatable=0;points=[[0,0.5],[1,0.5]];portConstraint=eastwest;rounded=0;shadow=0;html=0;" parent="aaVzcD2_fwo34WTeyBTf-57" vertex="1">
          <mxGeometry y="234" width="390" height="26" as="geometry" />
        </mxCell>
        <mxCell id="Yn97bhyg1CkWvzF4sl9t-11" value="List&lt;List&lt;Object&gt;&gt;: ResultsList" style="text;align=left;verticalAlign=top;spacingLeft=4;spacingRight=4;overflow=hidden;rotatable=0;points=[[0,0.5],[1,0.5]];portConstraint=eastwest;rounded=0;shadow=0;html=0;" parent="aaVzcD2_fwo34WTeyBTf-57" vertex="1">
          <mxGeometry y="260" width="390" height="26" as="geometry" />
        </mxCell>
        <mxCell id="Yn97bhyg1CkWvzF4sl9t-6" value="Map&lt;Integer, Integer&gt;: RidersPoints" style="text;align=left;verticalAlign=top;spacingLeft=4;spacingRight=4;overflow=hidden;rotatable=0;points=[[0,0.5],[1,0.5]];portConstraint=eastwest;rounded=0;shadow=0;html=0;" parent="aaVzcD2_fwo34WTeyBTf-57" vertex="1">
          <mxGeometry y="286" width="390" height="26" as="geometry" />
        </mxCell>
        <mxCell id="Yn97bhyg1CkWvzF4sl9t-9" value="Map&lt;Integer, Integer&gt;: RidersPointsMountain" style="text;align=left;verticalAlign=top;spacingLeft=4;spacingRight=4;overflow=hidden;rotatable=0;points=[[0,0.5],[1,0.5]];portConstraint=eastwest;rounded=0;shadow=0;html=0;" parent="aaVzcD2_fwo34WTeyBTf-57" vertex="1">
          <mxGeometry y="312" width="390" height="26" as="geometry" />
        </mxCell>
        <mxCell id="Yn97bhyg1CkWvzF4sl9t-5" value="List&lt;CategorizedClimb&gt;: categorizedClimbs" style="text;align=left;verticalAlign=top;spacingLeft=4;spacingRight=4;overflow=hidden;rotatable=0;points=[[0,0.5],[1,0.5]];portConstraint=eastwest;rounded=0;shadow=0;html=0;" parent="aaVzcD2_fwo34WTeyBTf-57" vertex="1">
          <mxGeometry y="338" width="390" height="26" as="geometry" />
        </mxCell>
        <mxCell id="Yn97bhyg1CkWvzF4sl9t-36" value="" style="endArrow=none;html=1;rounded=0;exitX=-0.001;exitY=0.662;exitDx=0;exitDy=0;exitPerimeter=0;entryX=0.997;entryY=0.662;entryDx=0;entryDy=0;entryPerimeter=0;" parent="aaVzcD2_fwo34WTeyBTf-57" source="Yn97bhyg1CkWvzF4sl9t-34" target="Yn97bhyg1CkWvzF4sl9t-34" edge="1">
          <mxGeometry width="50" height="50" relative="1" as="geometry">
            <mxPoint x="70" y="380" as="sourcePoint" />
            <mxPoint x="120" y="330" as="targetPoint" />
          </mxGeometry>
        </mxCell>
        <mxCell id="Yn97bhyg1CkWvzF4sl9t-34" value="List&lt;IntermediateSprint&gt;: intermediateSprints" style="text;align=left;verticalAlign=top;spacingLeft=4;spacingRight=4;overflow=hidden;rotatable=0;points=[[0,0.5],[1,0.5]];portConstraint=eastwest;rounded=0;shadow=0;html=0;" parent="aaVzcD2_fwo34WTeyBTf-57" vertex="1">
          <mxGeometry y="364" width="390" height="42" as="geometry" />
        </mxCell>
        <mxCell id="Yn97bhyg1CkWvzF4sl9t-37" value="getStageType(): StageType" style="text;align=left;verticalAlign=top;spacingLeft=4;spacingRight=4;overflow=hidden;rotatable=0;points=[[0,0.5],[1,0.5]];portConstraint=eastwest;rounded=0;shadow=0;html=0;" parent="aaVzcD2_fwo34WTeyBTf-57" vertex="1">
          <mxGeometry y="406" width="390" height="26" as="geometry" />
        </mxCell>
        <mxCell id="Yn97bhyg1CkWvzF4sl9t-38" value="setStageType(StageType): void" style="text;align=left;verticalAlign=top;spacingLeft=4;spacingRight=4;overflow=hidden;rotatable=0;points=[[0,0.5],[1,0.5]];portConstraint=eastwest;rounded=0;shadow=0;html=0;" parent="aaVzcD2_fwo34WTeyBTf-57" vertex="1">
          <mxGeometry y="432" width="390" height="26" as="geometry" />
        </mxCell>
        <mxCell id="Yn97bhyg1CkWvzF4sl9t-35" value="*All Getters and Setters for all other attributes*" style="text;align=left;verticalAlign=top;spacingLeft=4;spacingRight=4;overflow=hidden;rotatable=0;points=[[0,0.5],[1,0.5]];portConstraint=eastwest;rounded=0;shadow=0;html=0;" parent="aaVzcD2_fwo34WTeyBTf-57" vertex="1">
          <mxGeometry y="458" width="390" height="26" as="geometry" />
        </mxCell>
        <mxCell id="Yn97bhyg1CkWvzF4sl9t-39" value="getRiderResults(int): LocalTime[]" style="text;align=left;verticalAlign=top;spacingLeft=4;spacingRight=4;overflow=hidden;rotatable=0;points=[[0,0.5],[1,0.5]];portConstraint=eastwest;rounded=0;shadow=0;html=0;" parent="aaVzcD2_fwo34WTeyBTf-57" vertex="1">
          <mxGeometry y="484" width="390" height="26" as="geometry" />
        </mxCell>
        <mxCell id="6M48oYMWb6oDqVLGl2mA-2" value="AdjustResultsList(List&lt;List&lt;Object&gt;&gt;): List&lt;List&lt;Object&gt;&gt;" style="text;align=left;verticalAlign=top;spacingLeft=4;spacingRight=4;overflow=hidden;rotatable=0;points=[[0,0.5],[1,0.5]];portConstraint=eastwest;rounded=0;shadow=0;html=0;" parent="aaVzcD2_fwo34WTeyBTf-57" vertex="1">
          <mxGeometry y="510" width="390" height="26" as="geometry" />
        </mxCell>
        <mxCell id="Yn97bhyg1CkWvzF4sl9t-42" value="deleteRiderResults(int): boolean" style="text;align=left;verticalAlign=top;spacingLeft=4;spacingRight=4;overflow=hidden;rotatable=0;points=[[0,0.5],[1,0.5]];portConstraint=eastwest;rounded=0;shadow=0;html=0;" parent="aaVzcD2_fwo34WTeyBTf-57" vertex="1">
          <mxGeometry y="536" width="390" height="26" as="geometry" />
        </mxCell>
        <mxCell id="Yn97bhyg1CkWvzF4sl9t-45" value="deepCopyList(List&lt;List&lt;Object&gt;&gt;): List&lt;List&lt;Object&gt;&gt;" style="text;align=left;verticalAlign=top;spacingLeft=4;spacingRight=4;overflow=hidden;rotatable=0;points=[[0,0.5],[1,0.5]];portConstraint=eastwest;rounded=0;shadow=0;html=0;" parent="aaVzcD2_fwo34WTeyBTf-57" vertex="1">
          <mxGeometry y="562" width="390" height="26" as="geometry" />
        </mxCell>
        <mxCell id="Yn97bhyg1CkWvzF4sl9t-44" value="DealWithDict(Map&lt;Integer, LocalTime&gt;): Map&lt;Integer, LocalTime&gt;" style="text;align=left;verticalAlign=top;spacingLeft=4;spacingRight=4;overflow=hidden;rotatable=0;points=[[0,0.5],[1,0.5]];portConstraint=eastwest;rounded=0;shadow=0;html=0;" parent="aaVzcD2_fwo34WTeyBTf-57" vertex="1">
          <mxGeometry y="588" width="390" height="26" as="geometry" />
        </mxCell>
        <mxCell id="Yn97bhyg1CkWvzF4sl9t-49" value="GetAdjustedFinishTime(List&lt;List&lt;Object&gt;&gt;): List&lt;List&lt;Object&gt;&gt;" style="text;align=left;verticalAlign=top;spacingLeft=4;spacingRight=4;overflow=hidden;rotatable=0;points=[[0,0.5],[1,0.5]];portConstraint=eastwest;rounded=0;shadow=0;html=0;" parent="aaVzcD2_fwo34WTeyBTf-57" vertex="1">
          <mxGeometry y="614" width="390" height="26" as="geometry" />
        </mxCell>
        <mxCell id="Yn97bhyg1CkWvzF4sl9t-47" value="AddElapsedTime(List&lt;List&lt;Object&gt;&gt;): List&lt;List&lt;Object&gt;&gt;" style="text;align=left;verticalAlign=top;spacingLeft=4;spacingRight=4;overflow=hidden;rotatable=0;points=[[0,0.5],[1,0.5]];portConstraint=eastwest;rounded=0;shadow=0;html=0;" parent="aaVzcD2_fwo34WTeyBTf-57" vertex="1">
          <mxGeometry y="640" width="390" height="26" as="geometry" />
        </mxCell>
        <mxCell id="Yn97bhyg1CkWvzF4sl9t-41" value="GetAdjustedElapsedList(List&lt;List&lt;Object&gt;&gt;): List&lt;List&lt;Object&gt;&gt;" style="text;align=left;verticalAlign=top;spacingLeft=4;spacingRight=4;overflow=hidden;rotatable=0;points=[[0,0.5],[1,0.5]];portConstraint=eastwest;rounded=0;shadow=0;html=0;" parent="aaVzcD2_fwo34WTeyBTf-57" vertex="1">
          <mxGeometry y="666" width="390" height="26" as="geometry" />
        </mxCell>
        <mxCell id="Yn97bhyg1CkWvzF4sl9t-48" value="AddRidersToList(int, int, LocalTime[]): List&lt;List&lt;Object&gt;&gt;" style="text;align=left;verticalAlign=top;spacingLeft=4;spacingRight=4;overflow=hidden;rotatable=0;points=[[0,0.5],[1,0.5]];portConstraint=eastwest;rounded=0;shadow=0;html=0;" parent="aaVzcD2_fwo34WTeyBTf-57" vertex="1">
          <mxGeometry y="692" width="390" height="26" as="geometry" />
        </mxCell>
        <mxCell id="Yn97bhyg1CkWvzF4sl9t-55" value="getRiderResultsInStageMethod(int, int): LocalTime[]" style="text;align=left;verticalAlign=top;spacingLeft=4;spacingRight=4;overflow=hidden;rotatable=0;points=[[0,0.5],[1,0.5]];portConstraint=eastwest;rounded=0;shadow=0;html=0;" parent="aaVzcD2_fwo34WTeyBTf-57" vertex="1">
          <mxGeometry y="718" width="390" height="26" as="geometry" />
        </mxCell>
        <mxCell id="Yn97bhyg1CkWvzF4sl9t-56" value="getRiderAdjustedElapsedTimeInStageMethod(int, int): LocalTime" style="text;align=left;verticalAlign=top;spacingLeft=4;spacingRight=4;overflow=hidden;rotatable=0;points=[[0,0.5],[1,0.5]];portConstraint=eastwest;rounded=0;shadow=0;html=0;" parent="aaVzcD2_fwo34WTeyBTf-57" vertex="1">
          <mxGeometry y="744" width="390" height="26" as="geometry" />
        </mxCell>
        <mxCell id="Yn97bhyg1CkWvzF4sl9t-40" value="DeleteRider(int, int): boolean" style="text;align=left;verticalAlign=top;spacingLeft=4;spacingRight=4;overflow=hidden;rotatable=0;points=[[0,0.5],[1,0.5]];portConstraint=eastwest;rounded=0;shadow=0;html=0;" parent="aaVzcD2_fwo34WTeyBTf-57" vertex="1">
          <mxGeometry y="770" width="390" height="26" as="geometry" />
        </mxCell>
        <mxCell id="Yn97bhyg1CkWvzF4sl9t-46" value="getRidersRankInStageMethod(int): int[]" style="text;align=left;verticalAlign=top;spacingLeft=4;spacingRight=4;overflow=hidden;rotatable=0;points=[[0,0.5],[1,0.5]];portConstraint=eastwest;rounded=0;shadow=0;html=0;" parent="aaVzcD2_fwo34WTeyBTf-57" vertex="1">
          <mxGeometry y="796" width="390" height="26" as="geometry" />
        </mxCell>
        <mxCell id="Yn97bhyg1CkWvzF4sl9t-54" value="findMaxLocalTime(LocalTime[]): LocalTime" style="text;align=left;verticalAlign=top;spacingLeft=4;spacingRight=4;overflow=hidden;rotatable=0;points=[[0,0.5],[1,0.5]];portConstraint=eastwest;rounded=0;shadow=0;html=0;" parent="aaVzcD2_fwo34WTeyBTf-57" vertex="1">
          <mxGeometry y="822" width="390" height="26" as="geometry" />
        </mxCell>
        <mxCell id="Yn97bhyg1CkWvzF4sl9t-51" value="SortListbasedOfFinalTime(List&lt;List&lt;Object&gt;&gt;): List&lt;List&lt;Object&gt;&gt;" style="text;align=left;verticalAlign=top;spacingLeft=4;spacingRight=4;overflow=hidden;rotatable=0;points=[[0,0.5],[1,0.5]];portConstraint=eastwest;rounded=0;shadow=0;html=0;" parent="aaVzcD2_fwo34WTeyBTf-57" vertex="1">
          <mxGeometry y="848" width="390" height="26" as="geometry" />
        </mxCell>
        <mxCell id="Yn97bhyg1CkWvzF4sl9t-52" value="SortListbasedOfElapsedTime(List&lt;List&lt;Object&gt;&gt;): List&lt;List&lt;Object&gt;&gt;" style="text;align=left;verticalAlign=top;spacingLeft=4;spacingRight=4;overflow=hidden;rotatable=0;points=[[0,0.5],[1,0.5]];portConstraint=eastwest;rounded=0;shadow=0;html=0;" parent="aaVzcD2_fwo34WTeyBTf-57" vertex="1">
          <mxGeometry y="874" width="390" height="26" as="geometry" />
        </mxCell>
        <mxCell id="Yn97bhyg1CkWvzF4sl9t-53" value="getRankedAdjustedElapsedTimesInStageMethod(int): LocalTime[]" style="text;align=left;verticalAlign=top;spacingLeft=4;spacingRight=4;overflow=hidden;rotatable=0;points=[[0,0.5],[1,0.5]];portConstraint=eastwest;rounded=0;shadow=0;html=0;" parent="aaVzcD2_fwo34WTeyBTf-57" vertex="1">
          <mxGeometry y="900" width="390" height="26" as="geometry" />
        </mxCell>
        <mxCell id="Yn97bhyg1CkWvzF4sl9t-43" value="getPointsForStageType(): List&lt;Integer&gt;" style="text;align=left;verticalAlign=top;spacingLeft=4;spacingRight=4;overflow=hidden;rotatable=0;points=[[0,0.5],[1,0.5]];portConstraint=eastwest;rounded=0;shadow=0;html=0;" parent="aaVzcD2_fwo34WTeyBTf-57" vertex="1">
          <mxGeometry y="926" width="390" height="26" as="geometry" />
        </mxCell>
        <mxCell id="Yn97bhyg1CkWvzF4sl9t-57" value="AssignPointsToRiders(): void" style="text;align=left;verticalAlign=top;spacingLeft=4;spacingRight=4;overflow=hidden;rotatable=0;points=[[0,0.5],[1,0.5]];portConstraint=eastwest;rounded=0;shadow=0;html=0;" parent="aaVzcD2_fwo34WTeyBTf-57" vertex="1">
          <mxGeometry y="952" width="390" height="26" as="geometry" />
        </mxCell>
        <mxCell id="Yn97bhyg1CkWvzF4sl9t-58" value="getRidersPointsInStageMethod(): int[]" style="text;align=left;verticalAlign=top;spacingLeft=4;spacingRight=4;overflow=hidden;rotatable=0;points=[[0,0.5],[1,0.5]];portConstraint=eastwest;rounded=0;shadow=0;html=0;" parent="aaVzcD2_fwo34WTeyBTf-57" vertex="1">
          <mxGeometry y="978" width="390" height="26" as="geometry" />
        </mxCell>
        <mxCell id="Yn97bhyg1CkWvzF4sl9t-59" value="GetPointsForCheckpointTypeMountain(CheckpointType): List&lt;Integer&gt;" style="text;align=left;verticalAlign=top;spacingLeft=4;spacingRight=4;overflow=hidden;rotatable=0;points=[[0,0.5],[1,0.5]];portConstraint=eastwest;rounded=0;shadow=0;html=0;" parent="aaVzcD2_fwo34WTeyBTf-57" vertex="1">
          <mxGeometry y="1004" width="390" height="26" as="geometry" />
        </mxCell>
        <mxCell id="Yn97bhyg1CkWvzF4sl9t-60" value="SortListAtIndex(List&lt;List&lt;Object&gt;&gt;, int): List&lt;List&lt;Object&gt;&gt;" style="text;align=left;verticalAlign=top;spacingLeft=4;spacingRight=4;overflow=hidden;rotatable=0;points=[[0,0.5],[1,0.5]];portConstraint=eastwest;rounded=0;shadow=0;html=0;" parent="aaVzcD2_fwo34WTeyBTf-57" vertex="1">
          <mxGeometry y="1030" width="390" height="26" as="geometry" />
        </mxCell>
        <mxCell id="Yn97bhyg1CkWvzF4sl9t-61" value="AssignMountainPointsToRiders(): void" style="text;align=left;verticalAlign=top;spacingLeft=4;spacingRight=4;overflow=hidden;rotatable=0;points=[[0,0.5],[1,0.5]];portConstraint=eastwest;rounded=0;shadow=0;html=0;" parent="aaVzcD2_fwo34WTeyBTf-57" vertex="1">
          <mxGeometry y="1056" width="390" height="26" as="geometry" />
        </mxCell>
        <mxCell id="Yn97bhyg1CkWvzF4sl9t-63" value="getRidersMountainPointsInStage(): int[]" style="text;align=left;verticalAlign=top;spacingLeft=4;spacingRight=4;overflow=hidden;rotatable=0;points=[[0,0.5],[1,0.5]];portConstraint=eastwest;rounded=0;shadow=0;html=0;" parent="aaVzcD2_fwo34WTeyBTf-57" vertex="1">
          <mxGeometry y="1082" width="390" height="26" as="geometry" />
        </mxCell>
        <mxCell id="Yn97bhyg1CkWvzF4sl9t-62" value="addCategorizedClimb(CategorizedClimb): void" style="text;align=left;verticalAlign=top;spacingLeft=4;spacingRight=4;overflow=hidden;rotatable=0;points=[[0,0.5],[1,0.5]];portConstraint=eastwest;rounded=0;shadow=0;html=0;" parent="aaVzcD2_fwo34WTeyBTf-57" vertex="1">
          <mxGeometry y="1108" width="390" height="26" as="geometry" />
        </mxCell>
        <mxCell id="Yn97bhyg1CkWvzF4sl9t-64" value="addIntermediateSprint(IntermediateSprint): void" style="text;align=left;verticalAlign=top;spacingLeft=4;spacingRight=4;overflow=hidden;rotatable=0;points=[[0,0.5],[1,0.5]];portConstraint=eastwest;rounded=0;shadow=0;html=0;" parent="aaVzcD2_fwo34WTeyBTf-57" vertex="1">
          <mxGeometry y="1134" width="390" height="26" as="geometry" />
        </mxCell>
        <mxCell id="aaVzcD2_fwo34WTeyBTf-64" value="Checkpoint" style="swimlane;fontStyle=0;align=center;verticalAlign=top;childLayout=stackLayout;horizontal=1;startSize=26;horizontalStack=0;resizeParent=1;resizeLast=0;collapsible=1;marginBottom=0;rounded=0;shadow=0;strokeWidth=1;" parent="WIyWlLk6GJQsqaUBKTNV-1" vertex="1">
          <mxGeometry x="-155" y="1966" width="220" height="174" as="geometry">
            <mxRectangle x="230" y="140" width="160" height="26" as="alternateBounds" />
          </mxGeometry>
        </mxCell>
        <mxCell id="aaVzcD2_fwo34WTeyBTf-66" value="checkpointType: CheckpointType" style="text;align=left;verticalAlign=top;spacingLeft=4;spacingRight=4;overflow=hidden;rotatable=0;points=[[0,0.5],[1,0.5]];portConstraint=eastwest;rounded=0;shadow=0;html=0;" parent="aaVzcD2_fwo34WTeyBTf-64" vertex="1">
          <mxGeometry y="26" width="220" height="26" as="geometry" />
        </mxCell>
        <mxCell id="aaVzcD2_fwo34WTeyBTf-67" value="CheckpointId: int" style="text;align=left;verticalAlign=top;spacingLeft=4;spacingRight=4;overflow=hidden;rotatable=0;points=[[0,0.5],[1,0.5]];portConstraint=eastwest;rounded=0;shadow=0;html=0;" parent="aaVzcD2_fwo34WTeyBTf-64" vertex="1">
          <mxGeometry y="52" width="220" height="26" as="geometry" />
        </mxCell>
        <mxCell id="aaVzcD2_fwo34WTeyBTf-68" value="" style="line;html=1;strokeWidth=1;align=left;verticalAlign=middle;spacingTop=-1;spacingLeft=3;spacingRight=3;rotatable=0;labelPosition=right;points=[];portConstraint=eastwest;" parent="aaVzcD2_fwo34WTeyBTf-64" vertex="1">
          <mxGeometry y="78" width="220" height="12" as="geometry" />
        </mxCell>
        <mxCell id="aaVzcD2_fwo34WTeyBTf-69" value="getCheckpointId(): int" style="text;align=left;verticalAlign=top;spacingLeft=4;spacingRight=4;overflow=hidden;rotatable=0;points=[[0,0.5],[1,0.5]];portConstraint=eastwest;" parent="aaVzcD2_fwo34WTeyBTf-64" vertex="1">
          <mxGeometry y="90" width="220" height="42" as="geometry" />
        </mxCell>
        <mxCell id="Kk-DiytZcBYfo9PK34eh-10" value="getCheckpointType(): CheckpointType" style="text;align=left;verticalAlign=top;spacingLeft=4;spacingRight=4;overflow=hidden;rotatable=0;points=[[0,0.5],[1,0.5]];portConstraint=eastwest;" parent="aaVzcD2_fwo34WTeyBTf-64" vertex="1">
          <mxGeometry y="132" width="220" height="42" as="geometry" />
        </mxCell>
        <mxCell id="msGJpSvmKbN9c3uH3SC7-50" value="" style="endArrow=diamondThin;endFill=0;endSize=24;html=1;rounded=0;exitX=0.5;exitY=0;exitDx=0;exitDy=0;entryX=0.5;entryY=1;entryDx=0;entryDy=0;" parent="WIyWlLk6GJQsqaUBKTNV-1" source="aaVzcD2_fwo34WTeyBTf-64" target="aaVzcD2_fwo34WTeyBTf-57" edge="1">
          <mxGeometry width="160" relative="1" as="geometry">
            <mxPoint x="-320" y="1146" as="sourcePoint" />
            <mxPoint x="-210" y="1018" as="targetPoint" />
          </mxGeometry>
        </mxCell>
        <mxCell id="msGJpSvmKbN9c3uH3SC7-52" value="" style="endArrow=diamondThin;endFill=0;endSize=24;html=1;rounded=0;exitX=0.481;exitY=0.001;exitDx=0;exitDy=0;exitPerimeter=0;entryX=0.275;entryY=1.026;entryDx=0;entryDy=0;entryPerimeter=0;" parent="WIyWlLk6GJQsqaUBKTNV-1" source="aaVzcD2_fwo34WTeyBTf-11" target="PE1VXV2BmYIQWuOUvCGY-7" edge="1">
          <mxGeometry width="160" relative="1" as="geometry">
            <mxPoint x="-390" y="818" as="sourcePoint" />
            <mxPoint x="-400" y="650" as="targetPoint" />
            <Array as="points">
              <mxPoint x="-540" y="700" />
              <mxPoint x="-400" y="700" />
            </Array>
          </mxGeometry>
        </mxCell>
        <mxCell id="msGJpSvmKbN9c3uH3SC7-53" value="" style="endArrow=diamondThin;endFill=0;endSize=24;html=1;rounded=0;exitX=0.5;exitY=0;exitDx=0;exitDy=0;entryX=0.755;entryY=1.045;entryDx=0;entryDy=0;entryPerimeter=0;" parent="WIyWlLk6GJQsqaUBKTNV-1" source="aaVzcD2_fwo34WTeyBTf-57" target="PE1VXV2BmYIQWuOUvCGY-7" edge="1">
          <mxGeometry width="160" relative="1" as="geometry">
            <mxPoint x="-200" y="598" as="sourcePoint" />
            <mxPoint x="-240" y="650" as="targetPoint" />
            <Array as="points">
              <mxPoint x="-45" y="710" />
              <mxPoint x="-240" y="710" />
            </Array>
          </mxGeometry>
        </mxCell>
        <mxCell id="bQhxpnf4zEDF_hCfJMsT-13" value="CyclingPortallmpl" style="swimlane;fontStyle=2;align=center;verticalAlign=top;childLayout=stackLayout;horizontal=1;startSize=26;horizontalStack=0;resizeParent=1;resizeLast=0;collapsible=1;marginBottom=0;rounded=0;shadow=0;strokeWidth=1;" parent="WIyWlLk6GJQsqaUBKTNV-1" vertex="1">
          <mxGeometry x="430" y="-730" width="440" height="1022" as="geometry">
            <mxRectangle x="550" y="140" width="160" height="26" as="alternateBounds" />
          </mxGeometry>
        </mxCell>
        <mxCell id="bQhxpnf4zEDF_hCfJMsT-14" value="getRaceIds(): int[]" style="text;align=left;verticalAlign=top;spacingLeft=4;spacingRight=4;overflow=hidden;rotatable=0;points=[[0,0.5],[1,0.5]];portConstraint=eastwest;" parent="bQhxpnf4zEDF_hCfJMsT-13" vertex="1">
          <mxGeometry y="26" width="440" height="26" as="geometry" />
        </mxCell>
        <mxCell id="bQhxpnf4zEDF_hCfJMsT-15" value="createRace(string,string): int" style="text;align=left;verticalAlign=top;spacingLeft=4;spacingRight=4;overflow=hidden;rotatable=0;points=[[0,0.5],[1,0.5]];portConstraint=eastwest;rounded=0;shadow=0;html=0;" parent="bQhxpnf4zEDF_hCfJMsT-13" vertex="1">
          <mxGeometry y="52" width="440" height="26" as="geometry" />
        </mxCell>
        <mxCell id="bQhxpnf4zEDF_hCfJMsT-16" value="viewRaceDetails(int): String" style="text;align=left;verticalAlign=top;spacingLeft=4;spacingRight=4;overflow=hidden;rotatable=0;points=[[0,0.5],[1,0.5]];portConstraint=eastwest;rounded=0;shadow=0;html=0;" parent="bQhxpnf4zEDF_hCfJMsT-13" vertex="1">
          <mxGeometry y="78" width="440" height="26" as="geometry" />
        </mxCell>
        <mxCell id="bQhxpnf4zEDF_hCfJMsT-17" value="removeRaceById(int): void" style="text;align=left;verticalAlign=top;spacingLeft=4;spacingRight=4;overflow=hidden;rotatable=0;points=[[0,0.5],[1,0.5]];portConstraint=eastwest;rounded=0;shadow=0;html=0;" parent="bQhxpnf4zEDF_hCfJMsT-13" vertex="1">
          <mxGeometry y="104" width="440" height="26" as="geometry" />
        </mxCell>
        <mxCell id="bQhxpnf4zEDF_hCfJMsT-18" value="getNumberOfStages(int): int &#xa;" style="text;align=left;verticalAlign=top;spacingLeft=4;spacingRight=4;overflow=hidden;rotatable=0;points=[[0,0.5],[1,0.5]];portConstraint=eastwest;rounded=0;shadow=0;html=0;" parent="bQhxpnf4zEDF_hCfJMsT-13" vertex="1">
          <mxGeometry y="130" width="440" height="26" as="geometry" />
        </mxCell>
        <mxCell id="bQhxpnf4zEDF_hCfJMsT-19" value="AddStageToRace(int,String, String, double,LocalDateTime,StageType): int &#xa;" style="text;align=left;verticalAlign=top;spacingLeft=4;spacingRight=4;overflow=hidden;rotatable=0;points=[[0,0.5],[1,0.5]];portConstraint=eastwest;rounded=0;shadow=0;html=0;" parent="bQhxpnf4zEDF_hCfJMsT-13" vertex="1">
          <mxGeometry y="156" width="440" height="26" as="geometry" />
        </mxCell>
        <mxCell id="bQhxpnf4zEDF_hCfJMsT-20" value="getRaceStages(int): int[]" style="text;align=left;verticalAlign=top;spacingLeft=4;spacingRight=4;overflow=hidden;rotatable=0;points=[[0,0.5],[1,0.5]];portConstraint=eastwest;rounded=0;shadow=0;html=0;" parent="bQhxpnf4zEDF_hCfJMsT-13" vertex="1">
          <mxGeometry y="182" width="440" height="26" as="geometry" />
        </mxCell>
        <mxCell id="bQhxpnf4zEDF_hCfJMsT-21" value="getStageLength(int): double" style="text;align=left;verticalAlign=top;spacingLeft=4;spacingRight=4;overflow=hidden;rotatable=0;points=[[0,0.5],[1,0.5]];portConstraint=eastwest;rounded=0;shadow=0;html=0;" parent="bQhxpnf4zEDF_hCfJMsT-13" vertex="1">
          <mxGeometry y="208" width="440" height="26" as="geometry" />
        </mxCell>
        <mxCell id="bQhxpnf4zEDF_hCfJMsT-22" value="removeStageById(int): void&#xa;" style="text;align=left;verticalAlign=top;spacingLeft=4;spacingRight=4;overflow=hidden;rotatable=0;points=[[0,0.5],[1,0.5]];portConstraint=eastwest;rounded=0;shadow=0;html=0;" parent="bQhxpnf4zEDF_hCfJMsT-13" vertex="1">
          <mxGeometry y="234" width="440" height="26" as="geometry" />
        </mxCell>
        <mxCell id="bQhxpnf4zEDF_hCfJMsT-23" value="addCategorizedClimbToStage(int, Double, CheckpointType, Double, Double): int" style="text;align=left;verticalAlign=top;spacingLeft=4;spacingRight=4;overflow=hidden;rotatable=0;points=[[0,0.5],[1,0.5]];portConstraint=eastwest;rounded=0;shadow=0;html=0;" parent="bQhxpnf4zEDF_hCfJMsT-13" vertex="1">
          <mxGeometry y="260" width="440" height="26" as="geometry" />
        </mxCell>
        <mxCell id="bQhxpnf4zEDF_hCfJMsT-24" value="addIntermediateSprintToStage(int, double): int" style="text;align=left;verticalAlign=top;spacingLeft=4;spacingRight=4;overflow=hidden;rotatable=0;points=[[0,0.5],[1,0.5]];portConstraint=eastwest;rounded=0;shadow=0;html=0;" parent="bQhxpnf4zEDF_hCfJMsT-13" vertex="1">
          <mxGeometry y="286" width="440" height="26" as="geometry" />
        </mxCell>
        <mxCell id="bQhxpnf4zEDF_hCfJMsT-25" value="removeCheckpoint(int): void" style="text;align=left;verticalAlign=top;spacingLeft=4;spacingRight=4;overflow=hidden;rotatable=0;points=[[0,0.5],[1,0.5]];portConstraint=eastwest;rounded=0;shadow=0;html=0;" parent="bQhxpnf4zEDF_hCfJMsT-13" vertex="1">
          <mxGeometry y="312" width="440" height="26" as="geometry" />
        </mxCell>
        <mxCell id="bQhxpnf4zEDF_hCfJMsT-26" value="concludeStagePreparation(int): void" style="text;align=left;verticalAlign=top;spacingLeft=4;spacingRight=4;overflow=hidden;rotatable=0;points=[[0,0.5],[1,0.5]];portConstraint=eastwest;rounded=0;shadow=0;html=0;" parent="bQhxpnf4zEDF_hCfJMsT-13" vertex="1">
          <mxGeometry y="338" width="440" height="26" as="geometry" />
        </mxCell>
        <mxCell id="bQhxpnf4zEDF_hCfJMsT-27" value="getStageCheckpoints(int): int array" style="text;align=left;verticalAlign=top;spacingLeft=4;spacingRight=4;overflow=hidden;rotatable=0;points=[[0,0.5],[1,0.5]];portConstraint=eastwest;rounded=0;shadow=0;html=0;" parent="bQhxpnf4zEDF_hCfJMsT-13" vertex="1">
          <mxGeometry y="364" width="440" height="26" as="geometry" />
        </mxCell>
        <mxCell id="bQhxpnf4zEDF_hCfJMsT-28" value="createTeam(String, String): int" style="text;align=left;verticalAlign=top;spacingLeft=4;spacingRight=4;overflow=hidden;rotatable=0;points=[[0,0.5],[1,0.5]];portConstraint=eastwest;rounded=0;shadow=0;html=0;" parent="bQhxpnf4zEDF_hCfJMsT-13" vertex="1">
          <mxGeometry y="390" width="440" height="26" as="geometry" />
        </mxCell>
        <mxCell id="bQhxpnf4zEDF_hCfJMsT-29" value="removeTeam(int): void" style="text;align=left;verticalAlign=top;spacingLeft=4;spacingRight=4;overflow=hidden;rotatable=0;points=[[0,0.5],[1,0.5]];portConstraint=eastwest;rounded=0;shadow=0;html=0;" parent="bQhxpnf4zEDF_hCfJMsT-13" vertex="1">
          <mxGeometry y="416" width="440" height="26" as="geometry" />
        </mxCell>
        <mxCell id="bQhxpnf4zEDF_hCfJMsT-30" value="getTeams(): int array" style="text;align=left;verticalAlign=top;spacingLeft=4;spacingRight=4;overflow=hidden;rotatable=0;points=[[0,0.5],[1,0.5]];portConstraint=eastwest;rounded=0;shadow=0;html=0;" parent="bQhxpnf4zEDF_hCfJMsT-13" vertex="1">
          <mxGeometry y="442" width="440" height="26" as="geometry" />
        </mxCell>
        <mxCell id="bQhxpnf4zEDF_hCfJMsT-31" value="getTeamRiders(int): int array" style="text;align=left;verticalAlign=top;spacingLeft=4;spacingRight=4;overflow=hidden;rotatable=0;points=[[0,0.5],[1,0.5]];portConstraint=eastwest;rounded=0;shadow=0;html=0;" parent="bQhxpnf4zEDF_hCfJMsT-13" vertex="1">
          <mxGeometry y="468" width="440" height="26" as="geometry" />
        </mxCell>
        <mxCell id="bQhxpnf4zEDF_hCfJMsT-32" value="createRider(int, String, int): int" style="text;align=left;verticalAlign=top;spacingLeft=4;spacingRight=4;overflow=hidden;rotatable=0;points=[[0,0.5],[1,0.5]];portConstraint=eastwest;rounded=0;shadow=0;html=0;" parent="bQhxpnf4zEDF_hCfJMsT-13" vertex="1">
          <mxGeometry y="494" width="440" height="26" as="geometry" />
        </mxCell>
        <mxCell id="bQhxpnf4zEDF_hCfJMsT-33" value="removeRider(int): void" style="text;align=left;verticalAlign=top;spacingLeft=4;spacingRight=4;overflow=hidden;rotatable=0;points=[[0,0.5],[1,0.5]];portConstraint=eastwest;rounded=0;shadow=0;html=0;" parent="bQhxpnf4zEDF_hCfJMsT-13" vertex="1">
          <mxGeometry y="520" width="440" height="26" as="geometry" />
        </mxCell>
        <mxCell id="bQhxpnf4zEDF_hCfJMsT-34" value="registerRiderResultsInStage(int, int, LocalTime): void" style="text;align=left;verticalAlign=top;spacingLeft=4;spacingRight=4;overflow=hidden;rotatable=0;points=[[0,0.5],[1,0.5]];portConstraint=eastwest;rounded=0;shadow=0;html=0;" parent="bQhxpnf4zEDF_hCfJMsT-13" vertex="1">
          <mxGeometry y="546" width="440" height="26" as="geometry" />
        </mxCell>
        <mxCell id="bQhxpnf4zEDF_hCfJMsT-35" value="getRiderResultsInStage(int, int): LocalTime array " style="text;align=left;verticalAlign=top;spacingLeft=4;spacingRight=4;overflow=hidden;rotatable=0;points=[[0,0.5],[1,0.5]];portConstraint=eastwest;rounded=0;shadow=0;html=0;" parent="bQhxpnf4zEDF_hCfJMsT-13" vertex="1">
          <mxGeometry y="572" width="440" height="26" as="geometry" />
        </mxCell>
        <mxCell id="bQhxpnf4zEDF_hCfJMsT-36" value="getRiderAdjustedElapsedTimeInStage(int, int): LocalTime" style="text;align=left;verticalAlign=top;spacingLeft=4;spacingRight=4;overflow=hidden;rotatable=0;points=[[0,0.5],[1,0.5]];portConstraint=eastwest;rounded=0;shadow=0;html=0;" parent="bQhxpnf4zEDF_hCfJMsT-13" vertex="1">
          <mxGeometry y="598" width="440" height="26" as="geometry" />
        </mxCell>
        <mxCell id="bQhxpnf4zEDF_hCfJMsT-37" value="deleteRiderResultsInStage(int, int): void" style="text;align=left;verticalAlign=top;spacingLeft=4;spacingRight=4;overflow=hidden;rotatable=0;points=[[0,0.5],[1,0.5]];portConstraint=eastwest;rounded=0;shadow=0;html=0;" parent="bQhxpnf4zEDF_hCfJMsT-13" vertex="1">
          <mxGeometry y="624" width="440" height="26" as="geometry" />
        </mxCell>
        <mxCell id="bQhxpnf4zEDF_hCfJMsT-38" value="getRidersRankInStage(int): int array" style="text;align=left;verticalAlign=top;spacingLeft=4;spacingRight=4;overflow=hidden;rotatable=0;points=[[0,0.5],[1,0.5]];portConstraint=eastwest;rounded=0;shadow=0;html=0;" parent="bQhxpnf4zEDF_hCfJMsT-13" vertex="1">
          <mxGeometry y="650" width="440" height="26" as="geometry" />
        </mxCell>
        <mxCell id="bQhxpnf4zEDF_hCfJMsT-39" value="getRankedAdjustedElapsedTimeInStage(int): LocalTime array" style="text;align=left;verticalAlign=top;spacingLeft=4;spacingRight=4;overflow=hidden;rotatable=0;points=[[0,0.5],[1,0.5]];portConstraint=eastwest;rounded=0;shadow=0;html=0;" parent="bQhxpnf4zEDF_hCfJMsT-13" vertex="1">
          <mxGeometry y="676" width="440" height="26" as="geometry" />
        </mxCell>
        <mxCell id="bQhxpnf4zEDF_hCfJMsT-40" value="getRidersPointsInStage(int): int array" style="text;align=left;verticalAlign=top;spacingLeft=4;spacingRight=4;overflow=hidden;rotatable=0;points=[[0,0.5],[1,0.5]];portConstraint=eastwest;rounded=0;shadow=0;html=0;" parent="bQhxpnf4zEDF_hCfJMsT-13" vertex="1">
          <mxGeometry y="702" width="440" height="26" as="geometry" />
        </mxCell>
        <mxCell id="bQhxpnf4zEDF_hCfJMsT-41" value="getRidersMountainPointsInStage(int): int array" style="text;align=left;verticalAlign=top;spacingLeft=4;spacingRight=4;overflow=hidden;rotatable=0;points=[[0,0.5],[1,0.5]];portConstraint=eastwest;rounded=0;shadow=0;html=0;" parent="bQhxpnf4zEDF_hCfJMsT-13" vertex="1">
          <mxGeometry y="728" width="440" height="26" as="geometry" />
        </mxCell>
        <mxCell id="bQhxpnf4zEDF_hCfJMsT-42" value="eraseCyclingPortal(): void" style="text;align=left;verticalAlign=top;spacingLeft=4;spacingRight=4;overflow=hidden;rotatable=0;points=[[0,0.5],[1,0.5]];portConstraint=eastwest;rounded=0;shadow=0;html=0;" parent="bQhxpnf4zEDF_hCfJMsT-13" vertex="1">
          <mxGeometry y="754" width="440" height="26" as="geometry" />
        </mxCell>
        <mxCell id="bQhxpnf4zEDF_hCfJMsT-43" value="saveCyclingPortal(String): void" style="text;align=left;verticalAlign=top;spacingLeft=4;spacingRight=4;overflow=hidden;rotatable=0;points=[[0,0.5],[1,0.5]];portConstraint=eastwest;rounded=0;shadow=0;html=0;" parent="bQhxpnf4zEDF_hCfJMsT-13" vertex="1">
          <mxGeometry y="780" width="440" height="30" as="geometry" />
        </mxCell>
        <mxCell id="bQhxpnf4zEDF_hCfJMsT-44" value="loadCyclingPortal(String): void" style="text;align=left;verticalAlign=top;spacingLeft=4;spacingRight=4;overflow=hidden;rotatable=0;points=[[0,0.5],[1,0.5]];portConstraint=eastwest;rounded=0;shadow=0;html=0;" parent="bQhxpnf4zEDF_hCfJMsT-13" vertex="1">
          <mxGeometry y="810" width="440" height="30" as="geometry" />
        </mxCell>
        <mxCell id="bQhxpnf4zEDF_hCfJMsT-45" value="removeRaceByName(String): void" style="text;align=left;verticalAlign=top;spacingLeft=4;spacingRight=4;overflow=hidden;rotatable=0;points=[[0,0.5],[1,0.5]];portConstraint=eastwest;" parent="bQhxpnf4zEDF_hCfJMsT-13" vertex="1">
          <mxGeometry y="840" width="440" height="26" as="geometry" />
        </mxCell>
        <mxCell id="bQhxpnf4zEDF_hCfJMsT-46" value="getRidersMountainPointClassificationRank(int): int array" style="text;align=left;verticalAlign=top;spacingLeft=4;spacingRight=4;overflow=hidden;rotatable=0;points=[[0,0.5],[1,0.5]];portConstraint=eastwest;rounded=0;shadow=0;html=0;" parent="bQhxpnf4zEDF_hCfJMsT-13" vertex="1">
          <mxGeometry y="866" width="440" height="26" as="geometry" />
        </mxCell>
        <mxCell id="bQhxpnf4zEDF_hCfJMsT-47" value="getRidersPointClassificationRank(int): int array" style="text;align=left;verticalAlign=top;spacingLeft=4;spacingRight=4;overflow=hidden;rotatable=0;points=[[0,0.5],[1,0.5]];portConstraint=eastwest;rounded=0;shadow=0;html=0;" parent="bQhxpnf4zEDF_hCfJMsT-13" vertex="1">
          <mxGeometry y="892" width="440" height="26" as="geometry" />
        </mxCell>
        <mxCell id="bQhxpnf4zEDF_hCfJMsT-48" value="getRidersMountainPointsInRace(int): int array" style="text;align=left;verticalAlign=top;spacingLeft=4;spacingRight=4;overflow=hidden;rotatable=0;points=[[0,0.5],[1,0.5]];portConstraint=eastwest;rounded=0;shadow=0;html=0;" parent="bQhxpnf4zEDF_hCfJMsT-13" vertex="1">
          <mxGeometry y="918" width="440" height="26" as="geometry" />
        </mxCell>
        <mxCell id="bQhxpnf4zEDF_hCfJMsT-49" value="getRidersPointsInRace(int): int array" style="text;align=left;verticalAlign=top;spacingLeft=4;spacingRight=4;overflow=hidden;rotatable=0;points=[[0,0.5],[1,0.5]];portConstraint=eastwest;rounded=0;shadow=0;html=0;" parent="bQhxpnf4zEDF_hCfJMsT-13" vertex="1">
          <mxGeometry y="944" width="440" height="26" as="geometry" />
        </mxCell>
        <mxCell id="bQhxpnf4zEDF_hCfJMsT-50" value="getGeneralClassificationTimesInRace(int): LocalTime array" style="text;align=left;verticalAlign=top;spacingLeft=4;spacingRight=4;overflow=hidden;rotatable=0;points=[[0,0.5],[1,0.5]];portConstraint=eastwest;rounded=0;shadow=0;html=0;" parent="bQhxpnf4zEDF_hCfJMsT-13" vertex="1">
          <mxGeometry y="970" width="440" height="26" as="geometry" />
        </mxCell>
        <mxCell id="bQhxpnf4zEDF_hCfJMsT-51" value="getRidersGeneralClassificationRank(int): int array" style="text;align=left;verticalAlign=top;spacingLeft=4;spacingRight=4;overflow=hidden;rotatable=0;points=[[0,0.5],[1,0.5]];portConstraint=eastwest;rounded=0;shadow=0;html=0;" parent="bQhxpnf4zEDF_hCfJMsT-13" vertex="1">
          <mxGeometry y="996" width="440" height="26" as="geometry" />
        </mxCell>
        <mxCell id="bQhxpnf4zEDF_hCfJMsT-56" value="" style="endArrow=block;dashed=1;endFill=0;endSize=12;html=1;rounded=0;exitX=0.5;exitY=0;exitDx=0;exitDy=0;entryX=0.5;entryY=1;entryDx=0;entryDy=0;" parent="WIyWlLk6GJQsqaUBKTNV-1" source="zkfFHV4jXpPFQw0GAbJ--17" target="bQhxpnf4zEDF_hCfJMsT-13" edge="1">
          <mxGeometry width="160" relative="1" as="geometry">
            <mxPoint x="290" y="350" as="sourcePoint" />
            <mxPoint x="450" y="350" as="targetPoint" />
          </mxGeometry>
        </mxCell>
        <mxCell id="Yn97bhyg1CkWvzF4sl9t-13" value="CheckpointType" style="swimlane;fontStyle=0;childLayout=stackLayout;horizontal=1;startSize=26;fillColor=none;horizontalStack=0;resizeParent=1;resizeParentMax=0;resizeLast=0;collapsible=1;marginBottom=0;whiteSpace=wrap;html=1;" parent="WIyWlLk6GJQsqaUBKTNV-1" vertex="1">
          <mxGeometry x="150" y="1966" width="140" height="52" as="geometry" />
        </mxCell>
        <mxCell id="Yn97bhyg1CkWvzF4sl9t-14" value="CheckpointType: enum" style="text;strokeColor=none;fillColor=none;align=left;verticalAlign=top;spacingLeft=4;spacingRight=4;overflow=hidden;rotatable=0;points=[[0,0.5],[1,0.5]];portConstraint=eastwest;whiteSpace=wrap;html=1;" parent="Yn97bhyg1CkWvzF4sl9t-13" vertex="1">
          <mxGeometry y="26" width="140" height="26" as="geometry" />
        </mxCell>
        <mxCell id="Yn97bhyg1CkWvzF4sl9t-17" value="&lt;span style=&quot;font-weight: normal;&quot;&gt;StageState&lt;/span&gt;" style="swimlane;fontStyle=1;align=center;verticalAlign=top;childLayout=stackLayout;horizontal=1;startSize=26;horizontalStack=0;resizeParent=1;resizeParentMax=0;resizeLast=0;collapsible=1;marginBottom=0;whiteSpace=wrap;html=1;" parent="WIyWlLk6GJQsqaUBKTNV-1" vertex="1">
          <mxGeometry x="200" y="842" width="160" height="52" as="geometry" />
        </mxCell>
        <mxCell id="Yn97bhyg1CkWvzF4sl9t-18" value="StageState: enum" style="text;strokeColor=none;fillColor=none;align=left;verticalAlign=top;spacingLeft=4;spacingRight=4;overflow=hidden;rotatable=0;points=[[0,0.5],[1,0.5]];portConstraint=eastwest;whiteSpace=wrap;html=1;" parent="Yn97bhyg1CkWvzF4sl9t-17" vertex="1">
          <mxGeometry y="26" width="160" height="26" as="geometry" />
        </mxCell>
        <mxCell id="Yn97bhyg1CkWvzF4sl9t-21" value="&lt;span style=&quot;font-weight: normal;&quot;&gt;CategorizedClimb&lt;/span&gt;" style="swimlane;fontStyle=1;align=center;verticalAlign=top;childLayout=stackLayout;horizontal=1;startSize=26;horizontalStack=0;resizeParent=1;resizeParentMax=0;resizeLast=0;collapsible=1;marginBottom=0;whiteSpace=wrap;html=1;" parent="WIyWlLk6GJQsqaUBKTNV-1" vertex="1">
          <mxGeometry x="380" y="1930" width="230" height="250" as="geometry" />
        </mxCell>
        <mxCell id="Yn97bhyg1CkWvzF4sl9t-22" value="idCount: int&lt;div&gt;id: int&lt;br&gt;&lt;div&gt;location: Double&lt;/div&gt;&lt;div&gt;type: CheckpointType&lt;br&gt;averageGradient: Double&lt;/div&gt;&lt;div&gt;length: Double&lt;/div&gt;&lt;/div&gt;" style="text;strokeColor=none;fillColor=none;align=left;verticalAlign=top;spacingLeft=4;spacingRight=4;overflow=hidden;rotatable=0;points=[[0,0.5],[1,0.5]];portConstraint=eastwest;whiteSpace=wrap;html=1;" parent="Yn97bhyg1CkWvzF4sl9t-21" vertex="1">
          <mxGeometry y="26" width="230" height="104" as="geometry" />
        </mxCell>
        <mxCell id="Yn97bhyg1CkWvzF4sl9t-23" value="" style="line;strokeWidth=1;fillColor=none;align=left;verticalAlign=middle;spacingTop=-1;spacingLeft=3;spacingRight=3;rotatable=0;labelPosition=right;points=[];portConstraint=eastwest;strokeColor=inherit;" parent="Yn97bhyg1CkWvzF4sl9t-21" vertex="1">
          <mxGeometry y="130" width="230" height="28" as="geometry" />
        </mxCell>
        <mxCell id="Yn97bhyg1CkWvzF4sl9t-24" value="getId: int&lt;div&gt;getLocation: Double&lt;/div&gt;&lt;div&gt;getType: CheckpointType&lt;/div&gt;&lt;div&gt;getAverageGradient: Double&lt;/div&gt;&lt;div&gt;getLength: Double&lt;/div&gt;" style="text;strokeColor=none;fillColor=none;align=left;verticalAlign=top;spacingLeft=4;spacingRight=4;overflow=hidden;rotatable=0;points=[[0,0.5],[1,0.5]];portConstraint=eastwest;whiteSpace=wrap;html=1;" parent="Yn97bhyg1CkWvzF4sl9t-21" vertex="1">
          <mxGeometry y="158" width="230" height="92" as="geometry" />
        </mxCell>
        <mxCell id="Yn97bhyg1CkWvzF4sl9t-26" value="&lt;span style=&quot;font-weight: normal;&quot;&gt;IntermediateSprint&lt;/span&gt;" style="swimlane;fontStyle=1;align=center;verticalAlign=top;childLayout=stackLayout;horizontal=1;startSize=26;horizontalStack=0;resizeParent=1;resizeParentMax=0;resizeLast=0;collapsible=1;marginBottom=0;whiteSpace=wrap;html=1;" parent="WIyWlLk6GJQsqaUBKTNV-1" vertex="1">
          <mxGeometry x="660" y="1931" width="160" height="192" as="geometry" />
        </mxCell>
        <mxCell id="Yn97bhyg1CkWvzF4sl9t-27" value="idCounter: int&lt;div&gt;id: int&lt;/div&gt;&lt;div&gt;location: Double&lt;/div&gt;" style="text;strokeColor=none;fillColor=none;align=left;verticalAlign=top;spacingLeft=4;spacingRight=4;overflow=hidden;rotatable=0;points=[[0,0.5],[1,0.5]];portConstraint=eastwest;whiteSpace=wrap;html=1;" parent="Yn97bhyg1CkWvzF4sl9t-26" vertex="1">
          <mxGeometry y="26" width="160" height="64" as="geometry" />
        </mxCell>
        <mxCell id="Yn97bhyg1CkWvzF4sl9t-28" value="" style="line;strokeWidth=1;fillColor=none;align=left;verticalAlign=middle;spacingTop=-1;spacingLeft=3;spacingRight=3;rotatable=0;labelPosition=right;points=[];portConstraint=eastwest;strokeColor=inherit;" parent="Yn97bhyg1CkWvzF4sl9t-26" vertex="1">
          <mxGeometry y="90" width="160" height="10" as="geometry" />
        </mxCell>
        <mxCell id="Yn97bhyg1CkWvzF4sl9t-29" value="getId: int&lt;div&gt;getLocation: location&lt;/div&gt;" style="text;strokeColor=none;fillColor=none;align=left;verticalAlign=top;spacingLeft=4;spacingRight=4;overflow=hidden;rotatable=0;points=[[0,0.5],[1,0.5]];portConstraint=eastwest;whiteSpace=wrap;html=1;" parent="Yn97bhyg1CkWvzF4sl9t-26" vertex="1">
          <mxGeometry y="100" width="160" height="92" as="geometry" />
        </mxCell>
        <mxCell id="Yn97bhyg1CkWvzF4sl9t-65" value="&lt;span style=&quot;font-weight: 400;&quot;&gt;StageType&lt;/span&gt;" style="swimlane;fontStyle=1;align=center;verticalAlign=top;childLayout=stackLayout;horizontal=1;startSize=26;horizontalStack=0;resizeParent=1;resizeParentMax=0;resizeLast=0;collapsible=1;marginBottom=0;whiteSpace=wrap;html=1;" parent="WIyWlLk6GJQsqaUBKTNV-1" vertex="1">
          <mxGeometry x="200" y="920" width="160" height="52" as="geometry" />
        </mxCell>
        <mxCell id="Yn97bhyg1CkWvzF4sl9t-66" value="StageType: enum" style="text;strokeColor=none;fillColor=none;align=left;verticalAlign=top;spacingLeft=4;spacingRight=4;overflow=hidden;rotatable=0;points=[[0,0.5],[1,0.5]];portConstraint=eastwest;whiteSpace=wrap;html=1;" parent="Yn97bhyg1CkWvzF4sl9t-65" vertex="1">
          <mxGeometry y="26" width="160" height="26" as="geometry" />
        </mxCell>
        <mxCell id="Yn97bhyg1CkWvzF4sl9t-68" value="CheckpointType" style="swimlane;fontStyle=0;childLayout=stackLayout;horizontal=1;startSize=26;fillColor=none;horizontalStack=0;resizeParent=1;resizeParentMax=0;resizeLast=0;collapsible=1;marginBottom=0;whiteSpace=wrap;html=1;" parent="WIyWlLk6GJQsqaUBKTNV-1" vertex="1">
          <mxGeometry x="200" y="1000" width="155" height="52" as="geometry" />
        </mxCell>
        <mxCell id="Yn97bhyg1CkWvzF4sl9t-69" value="CheckpointType: enum" style="text;strokeColor=none;fillColor=none;align=left;verticalAlign=top;spacingLeft=4;spacingRight=4;overflow=hidden;rotatable=0;points=[[0,0.5],[1,0.5]];portConstraint=eastwest;whiteSpace=wrap;html=1;" parent="Yn97bhyg1CkWvzF4sl9t-68" vertex="1">
          <mxGeometry y="26" width="155" height="26" as="geometry" />
        </mxCell>
        <mxCell id="Yn97bhyg1CkWvzF4sl9t-99" value="" style="endArrow=classic;html=1;rounded=0;exitX=1;exitY=0.5;exitDx=0;exitDy=0;entryX=0;entryY=0.25;entryDx=0;entryDy=0;" parent="WIyWlLk6GJQsqaUBKTNV-1" source="6M48oYMWb6oDqVLGl2mA-0" target="Yn97bhyg1CkWvzF4sl9t-17" edge="1">
          <mxGeometry width="50" height="50" relative="1" as="geometry">
            <mxPoint x="195" y="830" as="sourcePoint" />
            <mxPoint x="245" y="780" as="targetPoint" />
          </mxGeometry>
        </mxCell>
        <mxCell id="Yn97bhyg1CkWvzF4sl9t-100" value="" style="endArrow=classic;html=1;rounded=0;exitX=1;exitY=0.5;exitDx=0;exitDy=0;entryX=0;entryY=0.25;entryDx=0;entryDy=0;" parent="WIyWlLk6GJQsqaUBKTNV-1" edge="1">
          <mxGeometry width="50" height="50" relative="1" as="geometry">
            <mxPoint x="150" y="940" as="sourcePoint" />
            <mxPoint x="200" y="940" as="targetPoint" />
          </mxGeometry>
        </mxCell>
        <mxCell id="Yn97bhyg1CkWvzF4sl9t-101" value="" style="endArrow=classic;html=1;rounded=0;exitX=1;exitY=0.5;exitDx=0;exitDy=0;entryX=0;entryY=0.25;entryDx=0;entryDy=0;" parent="WIyWlLk6GJQsqaUBKTNV-1" edge="1">
          <mxGeometry width="50" height="50" relative="1" as="geometry">
            <mxPoint x="150" y="1020" as="sourcePoint" />
            <mxPoint x="200" y="1020" as="targetPoint" />
          </mxGeometry>
        </mxCell>
        <mxCell id="Yn97bhyg1CkWvzF4sl9t-102" value="" style="endArrow=classic;html=1;rounded=0;exitX=0.992;exitY=0.077;exitDx=0;exitDy=0;entryX=0;entryY=0.25;entryDx=0;entryDy=0;exitPerimeter=0;" parent="WIyWlLk6GJQsqaUBKTNV-1" source="aaVzcD2_fwo34WTeyBTf-64" target="Yn97bhyg1CkWvzF4sl9t-13" edge="1">
          <mxGeometry width="50" height="50" relative="1" as="geometry">
            <mxPoint x="210" y="2020" as="sourcePoint" />
            <mxPoint x="260" y="1970" as="targetPoint" />
          </mxGeometry>
        </mxCell>
        <mxCell id="Yn97bhyg1CkWvzF4sl9t-106" value="" style="endArrow=diamondThin;endFill=0;endSize=24;html=1;rounded=0;exitX=0.5;exitY=0;exitDx=0;exitDy=0;entryX=0.5;entryY=1;entryDx=0;entryDy=0;" parent="WIyWlLk6GJQsqaUBKTNV-1" source="aaVzcD2_fwo34WTeyBTf-46" target="aaVzcD2_fwo34WTeyBTf-11" edge="1">
          <mxGeometry width="160" relative="1" as="geometry">
            <mxPoint x="-610" y="1100" as="sourcePoint" />
            <mxPoint x="-540" y="1230" as="targetPoint" />
          </mxGeometry>
        </mxCell>
        <mxCell id="Yn97bhyg1CkWvzF4sl9t-117" value="" style="endArrow=classic;html=1;rounded=0;exitX=0.001;exitY=0.23;exitDx=0;exitDy=0;entryX=1;entryY=0.25;entryDx=0;entryDy=0;exitPerimeter=0;" parent="WIyWlLk6GJQsqaUBKTNV-1" source="Yn97bhyg1CkWvzF4sl9t-22" target="Yn97bhyg1CkWvzF4sl9t-13" edge="1">
          <mxGeometry width="50" height="50" relative="1" as="geometry">
            <mxPoint x="320" y="2010" as="sourcePoint" />
            <mxPoint x="370" y="1960" as="targetPoint" />
          </mxGeometry>
        </mxCell>
        <mxCell id="Yn97bhyg1CkWvzF4sl9t-118" value="" style="endArrow=diamondThin;endFill=0;endSize=24;html=1;rounded=0;exitX=0.5;exitY=0;exitDx=0;exitDy=0;entryX=0.718;entryY=0.989;entryDx=0;entryDy=0;entryPerimeter=0;" parent="WIyWlLk6GJQsqaUBKTNV-1" source="Yn97bhyg1CkWvzF4sl9t-21" target="Yn97bhyg1CkWvzF4sl9t-64" edge="1">
          <mxGeometry width="160" relative="1" as="geometry">
            <mxPoint x="494.28999999999996" y="1884" as="sourcePoint" />
            <mxPoint x="40" y="1870" as="targetPoint" />
            <Array as="points">
              <mxPoint x="495" y="1900" />
              <mxPoint x="360" y="1900" />
              <mxPoint x="360" y="1950" />
              <mxPoint x="40" y="1950" />
              <mxPoint x="40" y="1930" />
            </Array>
          </mxGeometry>
        </mxCell>
        <mxCell id="Yn97bhyg1CkWvzF4sl9t-119" value="" style="endArrow=diamondThin;endFill=0;endSize=24;html=1;rounded=0;exitX=0.75;exitY=0;exitDx=0;exitDy=0;entryX=0.276;entryY=1.022;entryDx=0;entryDy=0;entryPerimeter=0;" parent="WIyWlLk6GJQsqaUBKTNV-1" source="Yn97bhyg1CkWvzF4sl9t-21" edge="1" target="bQhxpnf4zEDF_hCfJMsT-2">
          <mxGeometry width="160" relative="1" as="geometry">
            <mxPoint x="560" y="1924" as="sourcePoint" />
            <mxPoint x="550" y="1650" as="targetPoint" />
          </mxGeometry>
        </mxCell>
        <mxCell id="Yn97bhyg1CkWvzF4sl9t-120" value="" style="endArrow=diamondThin;endFill=0;endSize=24;html=1;rounded=0;exitX=0.5;exitY=0;exitDx=0;exitDy=0;entryX=0.704;entryY=1.009;entryDx=0;entryDy=0;entryPerimeter=0;" parent="WIyWlLk6GJQsqaUBKTNV-1" source="Yn97bhyg1CkWvzF4sl9t-26" edge="1" target="bQhxpnf4zEDF_hCfJMsT-2">
          <mxGeometry width="160" relative="1" as="geometry">
            <mxPoint x="743" y="1890" as="sourcePoint" />
            <mxPoint x="740" y="1540" as="targetPoint" />
          </mxGeometry>
        </mxCell>
        <mxCell id="Yn97bhyg1CkWvzF4sl9t-121" value="" style="endArrow=diamondThin;endFill=0;endSize=24;html=1;rounded=0;exitX=0.284;exitY=0;exitDx=0;exitDy=0;entryX=0.846;entryY=1.004;entryDx=0;entryDy=0;entryPerimeter=0;exitPerimeter=0;" parent="WIyWlLk6GJQsqaUBKTNV-1" source="Yn97bhyg1CkWvzF4sl9t-26" target="Yn97bhyg1CkWvzF4sl9t-64" edge="1">
          <mxGeometry width="160" relative="1" as="geometry">
            <mxPoint x="705" y="1914" as="sourcePoint" />
            <mxPoint x="90" y="1860" as="targetPoint" />
            <Array as="points">
              <mxPoint x="705" y="1880" />
              <mxPoint x="350" y="1880" />
              <mxPoint x="350" y="1930" />
              <mxPoint x="90" y="1931" />
            </Array>
          </mxGeometry>
        </mxCell>
        <mxCell id="Yn97bhyg1CkWvzF4sl9t-123" value="" style="endArrow=diamondThin;endFill=0;endSize=24;html=1;rounded=0;exitX=0.5;exitY=0;exitDx=0;exitDy=0;" parent="WIyWlLk6GJQsqaUBKTNV-1" source="aaVzcD2_fwo34WTeyBTf-33" edge="1">
          <mxGeometry width="160" relative="1" as="geometry">
            <mxPoint x="-200" y="-290" as="sourcePoint" />
            <mxPoint x="460" y="1650" as="targetPoint" />
            <Array as="points">
              <mxPoint x="-325" y="-390" />
              <mxPoint x="350" y="-390" />
              <mxPoint x="350" y="650" />
              <mxPoint x="420" y="650" />
              <mxPoint x="420" y="1680" />
              <mxPoint x="460" y="1680" />
            </Array>
          </mxGeometry>
        </mxCell>
        <mxCell id="Yn97bhyg1CkWvzF4sl9t-125" value="" style="endArrow=diamondThin;endFill=0;endSize=24;html=1;rounded=0;exitX=0.718;exitY=0;exitDx=0;exitDy=0;exitPerimeter=0;" parent="WIyWlLk6GJQsqaUBKTNV-1" edge="1">
          <mxGeometry width="160" relative="1" as="geometry">
            <mxPoint x="50" y="740" as="sourcePoint" />
            <mxPoint x="510" y="1650" as="targetPoint" />
            <Array as="points">
              <mxPoint x="50" y="680" />
              <mxPoint x="400" y="680" />
              <mxPoint x="400" y="1710" />
              <mxPoint x="510" y="1710" />
            </Array>
          </mxGeometry>
        </mxCell>
        <mxCell id="Yn97bhyg1CkWvzF4sl9t-126" value="" style="endArrow=diamondThin;endFill=0;endSize=24;html=1;rounded=0;exitX=0.704;exitY=-0.001;exitDx=0;exitDy=0;exitPerimeter=0;" parent="WIyWlLk6GJQsqaUBKTNV-1" source="aaVzcD2_fwo34WTeyBTf-46" edge="1">
          <mxGeometry width="160" relative="1" as="geometry">
            <mxPoint x="730" y="1670" as="sourcePoint" />
            <mxPoint x="820" y="1650" as="targetPoint" />
            <Array as="points">
              <mxPoint x="-480" y="1320" />
              <mxPoint x="-400" y="1320" />
              <mxPoint x="-320" y="1320" />
              <mxPoint x="-320" y="2200" />
              <mxPoint x="880" y="2200" />
              <mxPoint x="880" y="1680" />
              <mxPoint x="820" y="1680" />
            </Array>
          </mxGeometry>
        </mxCell>
        <mxCell id="Yn97bhyg1CkWvzF4sl9t-128" value="" style="endArrow=diamondThin;endFill=0;endSize=24;html=1;rounded=0;exitX=0.704;exitY=-0.001;exitDx=0;exitDy=0;exitPerimeter=0;entryX=0.796;entryY=1.028;entryDx=0;entryDy=0;entryPerimeter=0;" parent="WIyWlLk6GJQsqaUBKTNV-1" edge="1" target="bQhxpnf4zEDF_hCfJMsT-2">
          <mxGeometry width="160" relative="1" as="geometry">
            <mxPoint x="-440" y="750" as="sourcePoint" />
            <mxPoint x="810" y="1670" as="targetPoint" />
            <Array as="points">
              <mxPoint x="-440" y="710" />
              <mxPoint x="-280" y="710" />
              <mxPoint x="-280" y="2190" />
              <mxPoint x="860" y="2190" />
              <mxPoint x="860" y="1880" />
              <mxPoint x="780" y="1880" />
              <mxPoint x="780" y="1680" />
            </Array>
          </mxGeometry>
        </mxCell>
      </root>
    </mxGraphModel>
  </diagram>
</mxfile>
